<?xml version="1.0" encoding="utf-8"?>
<!-- Generator: Adobe Illustrator 19.1.0, SVG Export Plug-In . SVG Version: 6.00 Build 0)  -->
<svg version="1.1" id="Layer_1" xmlns="http://www.w3.org/2000/svg" xmlns:xlink="http://www.w3.org/1999/xlink" x="0px" y="0px"
	 viewBox="0 0 480 132" style="enable-background:new 0 0 480 132;" xml:space="preserve">
<style type="text/css">
	.st0{fill:#FF6B00;}
	.st1{fill:#96CCEA;}
	.st2{fill:#52B3DF;}
	.st3{fill:#0082CA;}
</style>
<g>
	<g>
		<g>
			<g>
				<g>
					<g>
						<path class="st0" d="M45.7,33.5c-1.1-0.5-4.6-1.8-6-2.1c-1.4-0.3-2.8-0.5-4.1-0.7c-1.4-0.2-2.8-0.4-4.1-0.5
							c-1.4-0.1-2.5-0.2-3.5-0.2c-5.4,0-10.3,0.5-14.7,1.5c-4.4,1-8.2,2.1-11.5,3.2v60.4h18.1V46.4c0.8-0.2,2-0.5,3.6-0.7
							c1.6-0.2,2.9-0.3,4.1-0.3c2.3,0,8.2,1.1,10.4,1.6C38.2,46,38.6,45,39,44C40.7,39.8,42.9,36.3,45.7,33.5z"/>
					</g>
				</g>
				<g>
					<path class="st0" d="M199.4,63.8c0-5.7,0.9-10.6,2.6-14.9c1.7-4.2,4-7.8,6.9-10.6c2.8-2.8,6.1-5,9.8-6.4
						c3.7-1.5,7.5-2.2,11.4-2.2c9.1,0,16.2,2.8,21.5,8.3c5.3,5.5,7.9,13.7,7.9,24.5c0,1.1,0,2.2-0.1,3.5c-0.1,1.3-0.2,2.4-0.2,3.3
						h-41c0.4,3.7,2.1,6.7,5.2,8.9c3.1,2.2,7.2,3.3,12.4,3.3c3.3,0,6.6-0.3,9.8-0.9c3.2-0.6,5.8-1.4,7.8-2.2l2.4,14.7
						c-1,0.5-2.3,1-3.9,1.5c-1.6,0.5-3.4,0.9-5.4,1.3c-2,0.4-4.1,0.7-6.4,0.9c-2.3,0.2-4.5,0.4-6.8,0.4c-5.8,0-10.7-0.8-15-2.5
						c-4.3-1.7-7.8-4-10.6-7c-2.8-3-4.9-6.5-6.2-10.5C200,72.9,199.4,68.5,199.4,63.8z M241.8,56.9c-0.1-1.5-0.3-3-0.8-4.5
						c-0.4-1.5-1.1-2.8-2.1-3.9c-0.9-1.1-2.1-2.1-3.5-2.8c-1.4-0.7-3.2-1.1-5.3-1.1c-2,0-3.8,0.3-5.2,1c-1.5,0.7-2.7,1.6-3.6,2.7
						c-1,1.1-1.7,2.4-2.2,3.9c-0.5,1.5-0.9,3-1.2,4.6H241.8z"/>
					<path class="st0" d="M352.4,33.6c3.1-0.9,7-1.7,11.9-2.5c4.9-0.8,10-1.2,15.3-1.2c5.4,0,9.9,0.7,13.5,2.1
						c3.6,1.4,6.5,3.4,8.6,6c2.1,2.6,3.6,5.7,4.5,9.2c0.9,3.6,1.3,7.5,1.3,11.9v36h-18.1V61.4c0-5.8-0.8-10-2.3-12.4
						c-1.5-2.4-4.4-3.6-8.6-3.6c-1.3,0-2.7,0.1-4.1,0.2c-1.5,0.1-2.8,0.3-3.9,0.4v49.3h-18.1V33.6z"/>
					<path class="st0" d="M464.2,80.5c-3.2,0.6-6.5,0.9-9.8,0.9c-5.2,0-9.3-1.1-12.4-3.3c-3.1-2.2-4.8-5.1-5.2-8.9h41
						c0.1-1,0.2-2.1,0.2-3.3c0-0.6,0-1.1,0.1-1.6v-0.5v0.5c0-0.6,0.1-1.3,0.1-1.9c0-10.8-2.6-18.9-7.9-24.5
						c-5.3-5.5-12.4-8.3-21.5-8.3c-3.9,0-7.7,0.7-11.3,2.2c-3.7,1.5-6.9,3.6-9.8,6.4c-2.8,2.8-5.1,6.4-6.9,10.6
						c-1.7,4.2-2.6,9.2-2.6,14.9c0,4.7,0.7,9.1,2,13.1c1.3,4,3.4,7.5,6.2,10.5c2.8,3,6.3,5.3,10.6,7c4.2,1.7,9.2,2.5,15,2.5
						c2.3,0,4.5-0.1,6.8-0.4c2.3-0.2,4.4-0.5,6.4-0.9c2-0.4,10.7-1.8,12.3-2.3c0.3-0.1,0.5-0.2,0.7-0.2V77.5
						C475.2,78.4,467.2,79.9,464.2,80.5z M438,52.3c0.5-1.5,1.3-2.8,2.2-3.9c1-1.1,2.2-2,3.6-2.7c1.5-0.7,3.2-1,5.2-1
						c2.1,0,3.9,0.4,5.3,1.1c1.4,0.7,2.6,1.7,3.5,2.8c0.9,1.1,1.6,2.4,2.1,3.9c0.4,1.5,0.7,3,0.8,4.5h-23.9
						C437.1,55.3,437.5,53.8,438,52.3z"/>
					<g>
						<path class="st0" d="M290.8,23.5c0.4-1.5,1-2.7,1.8-3.8c0.8-1,2-1.9,3.5-2.5c1.5-0.6,3.3-0.9,5.5-0.9c1.6,0,3.2,0.1,4.8,0.4
							c1.6,0.2,3,0.7,4.3,1.2l3.2-14.2c-1.5-0.6-3.4-1.3-5.6-1.8c-2.2-0.6-5-0.9-8.4-0.9c-9.1,0-16,2.4-20.7,7.3
							c-4.7,4.9-7,11.4-7,19.7v54.5h0l0,16.6l18.1-2.7l0-1.2V46.4h22.3v-15h-22.3v-3.2C290.3,26.5,290.5,25,290.8,23.5z"/>
						<rect x="323" y="31.4" class="st0" width="18.1" height="63.8"/>
					</g>
				</g>
				<path class="st0" d="M170.9,4v28.9c-2-0.9-4-1.6-6-2.1c-2-0.5-4.2-0.7-6.7-0.7c-4.5,0-8.6,0.8-12.1,2.3
					c-3.5,1.5-6.5,3.8-8.9,6.7c-2.4,2.9-4.3,6.5-5.6,10.6c0,0,0,0.1,0,0.1c-0.1,0.3-0.2,0.7-0.3,1c0.4,0.3,0.8,0.6,1.2,0.9
					c3.7,3.3,5.7,7.9,5.7,13.3c0,5.4-2,10-5.7,13.3c0,0-0.1,0.1-0.1,0.1c0.1,0.2,0.2,0.5,0.3,0.7c1.4,3.3,3.3,6.2,5.7,8.7
					c2.8,2.9,6.3,5.1,10.4,6.6c4.1,1.5,8.8,2.3,14.1,2.3c2.2,0,4.5-0.1,6.9-0.3c2.4-0.2,4.7-0.5,7-0.8c2.3-0.3,4.5-0.7,6.6-1.2
					c2.1-0.4,4-0.9,5.6-1.4V1.1L170.9,4z M170.9,80.8c-0.9,0.2-2,0.3-3.4,0.4c-1.4,0.1-2.9,0.2-4.5,0.2c-4.9,0-8.7-1.7-11.2-5.1
					c-2.5-3.4-3.8-7.9-3.8-13.5c0-11.7,4.3-17.5,12.9-17.5c1.9,0,3.7,0.2,5.5,0.7c1.8,0.5,3.3,1.1,4.4,1.8V80.8z"/>
				<path class="st0" d="M103.7,49.9C103.7,49.9,103.7,49.9,103.7,49.9c-1.3-4.8-3.4-8.8-6.3-11.9c-5.3-5.5-12.4-8.3-21.5-8.3
					c-3.9,0-7.7,0.7-11.3,2.2c-3.7,1.5-6.9,3.6-9.8,6.4c-2.8,2.8-5.1,6.4-6.9,10.6c-1.7,4.2-2.6,9.2-2.6,14.9c0,4.7,0.7,9.1,2,13.1
					c1.3,4,3.4,7.5,6.2,10.5c2.8,3,6.3,5.3,10.6,7c4.2,1.7,9.2,2.5,15,2.5c2.3,0,4.5-0.1,6.8-0.4c2.3-0.2,4.4-0.5,6.4-0.9
					c2-0.4,3.8-0.8,5.4-1.3c1.6-0.5,2.9-1,3.9-1.5l-2.4-14.7c-2,0.9-4.6,1.6-7.8,2.2c-3.2,0.6-6.5,0.9-9.8,0.9
					c-5.2,0-9.3-1.1-12.4-3.3c-3.1-2.2-4.8-5.1-5.2-8.9h33.6c-0.3-1.3-0.4-2.7-0.4-4.2c0-2.1,0.3-4.1,0.9-5.9
					C99.2,54.8,101.6,51.8,103.7,49.9z M63.9,56.9c0.2-1.5,0.6-3.1,1.2-4.6c0.5-1.5,1.3-2.8,2.2-3.9c1-1.1,2.2-2,3.6-2.7
					c1.5-0.7,3.2-1,5.2-1c2.1,0,3.9,0.4,5.3,1.1c1.4,0.7,2.6,1.7,3.5,2.8c0.9,1.1,1.6,2.4,2.1,3.9c0.4,1.5,0.7,3,0.8,4.5H63.9z"/>
			</g>
			<g>
				<g>
					<path class="st1" d="M101,11.1c0,1.4,0.5,2.6,1.4,3.4c0.9,0.8,2,1.2,3.3,1.2c1.3,0,2.4-0.4,3.3-1.2c0.9-0.8,1.4-2,1.4-3.4
						c0-1.4-0.5-2.6-1.4-3.4c-0.9-0.8-2-1.2-3.3-1.2c-1.3,0-2.4,0.4-3.3,1.2C101.5,8.5,101,9.6,101,11.1z"/>
				</g>
				<g>
					<path class="st2" d="M112.7,42.4c0,2.1,0.7,3.7,2,4.8c1.3,1.2,2.9,1.8,4.7,1.8c1.8,0,3.4-0.6,4.7-1.8c1.3-1.2,2-2.8,2-4.8
						s-0.7-3.7-2-4.8c-1.3-1.2-2.9-1.8-4.7-1.8c-1.8,0-3.4,0.6-4.7,1.8C113.3,38.7,112.7,40.3,112.7,42.4z"/>
				</g>
				<g>
					<path class="st3" d="M106.5,65c0,3.5,1.1,6.2,3.3,8.1c2.2,2,4.8,3,7.9,3c3,0,5.7-1,7.9-3c2.2-2,3.3-4.7,3.3-8.1
						c0-3.4-1.1-6.2-3.3-8.1c-2.2-2-4.9-3-7.9-3c-3,0-5.6,1-7.9,3C107.6,58.8,106.5,61.6,106.5,65z"/>
				</g>
			</g>
		</g>
	</g>
	<g>
		<path class="st3" d="M5.6,116.7v3.7h8.3v3.5H5.6v6.8H1.7v-17.5H15v3.5H5.6z"/>
		<path class="st3" d="M42.3,130.6l-1.6-3.9h-7.4l-1.6,3.9h-3.9l7.5-17.6h3.5l7.5,17.6H42.3z M37,117.7l-2.3,5.7h4.6L37,117.7z"/>
		<path class="st3" d="M69.3,130.9c-5.1,0-8.9-4-8.9-9v0c0-5,3.7-9,9.1-9c3.3,0,5.3,1.1,6.9,2.7l-2.4,2.8c-1.3-1.2-2.7-2-4.5-2
			c-2.9,0-5.1,2.4-5.1,5.4v0.1c0,3,2.1,5.5,5.1,5.5c2,0,3.2-0.8,4.6-2l2.4,2.5C74.6,129.8,72.7,130.9,69.3,130.9z"/>
		<path class="st3" d="M92.9,130.6v-17.5h3.8v17.5H92.9z"/>
		<path class="st3" d="M114.3,130.6v-17.5h3.8v14h8.7v3.5H114.3z"/>
		<path class="st3" d="M143.1,130.6v-17.5h3.8v17.5H143.1z"/>
		<path class="st3" d="M172.5,116.7v13.9h-3.8v-13.9h-5.3v-3.5h14.5v3.5H172.5z"/>
		<path class="st3" d="M202.7,123.7v7h-3.8v-6.9l-6.7-10.6h4.5l4.2,7l4.2-7h4.4L202.7,123.7z"/>
		<path class="st3" d="M260.1,130.9c-5.1,0-8.9-4-8.9-9v0c0-5,3.7-9,9.1-9c3.3,0,5.3,1.1,6.9,2.7l-2.4,2.8c-1.3-1.2-2.7-2-4.5-2
			c-2.9,0-5.1,2.4-5.1,5.4v0.1c0,3,2.1,5.5,5.1,5.5c2,0,3.2-0.8,4.6-2l2.4,2.5C265.4,129.8,263.4,130.9,260.1,130.9z"/>
		<path class="st3" d="M283.5,130.6v-17.5h3.8v14h8.7v3.5H283.5z"/>
		<path class="st3" d="M312.2,130.6v-17.5h13.2v3.4H316v3.5h8.2v3.4H316v3.7h9.5v3.4H312.2z"/>
		<path class="st3" d="M355.1,130.6l-1.6-3.9h-7.4l-1.6,3.9h-3.9l7.5-17.6h3.5l7.5,17.6H355.1z M349.8,117.7l-2.3,5.7h4.6
			L349.8,117.7z"/>
		<path class="st3" d="M387.2,130.6l-8.5-11.1v11.1H375v-17.5h3.5l8.2,10.7v-10.7h3.8v17.5H387.2z"/>
		<path class="st3" d="M408.1,130.6v-17.5h3.8v17.5H408.1z"/>
		<path class="st3" d="M441.7,130.6l-8.5-11.1v11.1h-3.8v-17.5h3.5l8.2,10.7v-10.7h3.8v17.5H441.7z"/>
		<path class="st3" d="M470.8,130.9c-5.4,0-9.2-3.8-9.2-9v0c0-5,3.9-9,9.1-9c3.1,0,5,0.8,6.9,2.4l-2.4,2.9c-1.3-1.1-2.5-1.8-4.6-1.8
			c-2.8,0-5,2.5-5,5.4v0.1c0,3.2,2.2,5.5,5.3,5.5c1.4,0,2.6-0.3,3.6-1v-2.5h-3.9v-3.3h7.6v7.6C476.5,129.7,474,130.9,470.8,130.9z"
			/>
	</g>
</g>
</svg>
