<?xml version="1.0" encoding="utf-8"?>
<!-- Generator: Adobe Illustrator 19.1.0, SVG Export Plug-In . SVG Version: 6.00 Build 0)  -->
<svg version="1.1" id="Layer_1" xmlns="http://www.w3.org/2000/svg" xmlns:xlink="http://www.w3.org/1999/xlink" x="0px" y="0px"
	 viewBox="0 0 200 200" style="enable-background:new 0 0 200 200;" xml:space="preserve">
<style type="text/css">
	.st0{fill:#0082CA;}
	.st1{fill:none;stroke:#0082CA;stroke-width:9;stroke-miterlimit:10;}
</style>
<g>
	<g>
		<g>
			<path class="st0" d="M100,98.4c-9.9,0-18.6-3.3-25.9-9.7C66.6,82,62.8,72.9,62.8,61.5c0-11.3,3.8-20.4,11.3-27.1
				c7.3-6.5,16-9.8,25.9-9.8c9.9,0,18.7,3.3,26,9.8l0,0c7.5,6.6,11.3,15.7,11.3,27.1c0,11.4-3.8,20.5-11.3,27.1
				C118.6,95.1,109.9,98.4,100,98.4z M100,33.7c-7.7,0-14.3,2.5-20,7.5c-5.5,4.9-8.2,11.6-8.2,20.3c0,8.8,2.7,15.5,8.2,20.4
				c5.7,5,12.2,7.5,20,7.5c7.7,0,14.3-2.5,20-7.5c5.5-4.9,8.2-11.6,8.2-20.4c0-8.8-2.7-15.4-8.2-20.3l0,0
				C114.3,36.1,107.8,33.7,100,33.7z"/>
		</g>
		<g>
			<path class="st0" d="M127.2,175.3H72.8c-8.2,0-14.8-6.1-14.8-13.5v-29.6c0-11.5,4.4-20.6,12.9-27.3c8.2-6.4,18-9.6,29.1-9.6
				c11.1,0,20.9,3.2,29.1,9.6c8.6,6.6,12.9,15.8,12.9,27.2v29.6C142,169.3,135.4,175.3,127.2,175.3z M100,104.4
				c-9.2,0-16.9,2.5-23.6,7.7c-6.4,4.9-9.4,11.5-9.4,20.1v29.6c0,2.4,2.7,4.5,5.8,4.5h54.4c3.2,0,5.8-2.1,5.8-4.5v-29.6
				c0-8.6-3.1-15.2-9.4-20.1C116.9,106.9,109.2,104.4,100,104.4z"/>
		</g>
		<g>
			<path class="st0" d="M100,83.8c-5.9,0-11.2-2-15.6-5.9c-4.6-4-6.9-9.6-6.9-16.4h9c0,4.2,1.3,7.4,3.8,9.7c2.8,2.4,5.9,3.6,9.6,3.6
				c3.7,0,6.9-1.2,9.7-3.6c2.6-2.3,3.8-5.5,3.8-9.7h9c0,6.9-2.3,12.4-6.9,16.4C111.2,81.8,105.9,83.8,100,83.8z"/>
		</g>
	</g>
	<g>
		<g>
			<path class="st0" d="M33.7,98.4c-6.4,0-12-2.1-16.7-6.3c-4.9-4.3-7.3-10.2-7.3-17.5c0-7.3,2.5-13.2,7.3-17.5l0,0
				c4.7-4.2,10.3-6.3,16.7-6.3c6.4,0,12,2.1,16.7,6.3c4.9,4.3,7.3,10.2,7.3,17.5c0,7.3-2.5,13.2-7.3,17.5
				C45.7,96.3,40.1,98.4,33.7,98.4z M23,63.8c-2.9,2.6-4.3,6.1-4.3,10.8c0,4.7,1.4,8.2,4.3,10.7c3.1,2.7,6.6,4,10.7,4
				c4.2,0,7.7-1.3,10.7-4c2.9-2.5,4.3-6.1,4.3-10.8c0-4.7-1.4-8.2-4.3-10.8c-3-2.7-6.5-4-10.7-4C29.6,59.8,26.1,61.2,23,63.8
				L23,63.8z"/>
		</g>
		<g>
			<path class="st0" d="M48.3,157.4H18.7c-7.4,0-13.5-6.1-13.5-13.5v-20.3c0-8.7,2.9-15.7,8.7-20.8c5.6-5,12.3-7.5,19.8-7.5
				c7.6,0,14.3,2.5,19.9,7.5c2.4,2.1,4.3,4.6,5.8,7.5l-8.1,4c-0.9-1.9-2.1-3.4-3.7-4.8c-4-3.5-8.5-5.2-13.9-5.2
				c-5.4,0-9.9,1.7-13.9,5.2c-3.8,3.4-5.7,8-5.7,14v20.3c0,2.5,2,4.5,4.5,4.5h29.6V157.4z"/>
		</g>
	</g>
	<g>
		<g>
			<path class="st0" d="M166.3,98.4c-6.4,0-12-2.1-16.7-6.3c-4.8-4.3-7.3-10.2-7.3-17.5c0-7.3,2.5-13.2,7.3-17.5
				c4.7-4.2,10.3-6.3,16.7-6.3c6.4,0,12,2.1,16.7,6.3l0,0c4.9,4.3,7.3,10.2,7.3,17.5c0,7.3-2.5,13.2-7.3,17.5
				C178.2,96.3,172.6,98.4,166.3,98.4z M166.3,59.8c-4.2,0-7.7,1.3-10.7,4c-2.9,2.6-4.3,6.1-4.3,10.8c0,4.7,1.4,8.2,4.3,10.7
				c3.1,2.7,6.6,4,10.7,4c4.1,0,7.6-1.3,10.7-4c2.9-2.5,4.3-6.1,4.3-10.8c0-4.7-1.4-8.2-4.3-10.8l0,0
				C173.9,61.2,170.4,59.8,166.3,59.8z"/>
		</g>
		<g>
			<path class="st0" d="M181.3,157.4h-29.6v-9h29.6c2.5,0,4.5-2,4.5-4.5v-20.3c0-6.1-1.8-10.7-5.6-14c-4-3.5-8.5-5.2-13.9-5.2
				c-5.4,0-9.9,1.7-13.9,5.2c-1.5,1.4-2.8,2.9-3.7,4.8l-8.1-4c1.4-2.9,3.4-5.4,5.8-7.5c5.6-5,12.3-7.5,19.9-7.5
				c7.6,0,14.3,2.5,19.8,7.5c5.8,5.1,8.7,12.1,8.7,20.8v20.3C194.8,151.4,188.8,157.4,181.3,157.4z"/>
		</g>
	</g>
</g>
</svg>
