<svg xmlns="http://www.w3.org/2000/svg" viewBox="0 0 200 200"><path class="svg-social-instagram" d="M141.2 63.4c0-1.9-1.5-3.4-3.4-3.4h-6.4c-1.9 0-3.4 1.5-3.4 3.4v6.4c0 1.9 1.5 3.4 3.4 3.4h6.5c1.9 0 3.4-1.5 3.4-3.4h-0.1V63.4zM100 123.6c11.4 0 20.6-9.4 20.6-21.1 0-11.6-9.2-21.1-20.6-21.1s-20.6 9.4-20.6 21.1C79.4 114.3 88.6 123.6 100 123.6zM133.1 102.5c0 18.5-14.8 33.7-33.1 33.7S66.9 121 66.9 102.5c0-7.5 2.5-14.5 6.7-20.2H61.4v56.4h77.3V82.2h-12.3C130.6 87.8 133.1 94.8 133.1 102.5zM100 5C47.5 5 5 47.5 5 100c0 52.5 42.5 95 95 95 52.5 0 95-42.5 95-95C195 47.5 152.5 5 100 5zM150.5 142.1c0 4.7-3.7 8.4-8.2 8.4H57.8c-4.5 0-8.2-3.7-8.2-8.4V57.9c0-4.7 3.7-8.4 8.2-8.4h84.5c4.5 0 8.2 3.7 8.2 8.4V142.1z"/></svg>