<?xml version="1.0" encoding="utf-8"?>
<!-- Generator: Adobe Illustrator 19.1.0, SVG Export Plug-In . SVG Version: 6.00 Build 0)  -->
<svg version="1.1" id="Layer_1" xmlns="http://www.w3.org/2000/svg" xmlns:xlink="http://www.w3.org/1999/xlink" x="0px" y="0px"
	 viewBox="0 0 200 200" style="enable-background:new 0 0 200 200;" xml:space="preserve">
<style type="text/css">
	.st0{fill:#0082CA;}
	.st1{fill:none;stroke:#0082CA;stroke-width:9;stroke-miterlimit:10;}
	.st2{fill:#FFFFFF;}
	.st3{fill:#434344;}
</style>
<g>
	<path class="st0" d="M129.1,105.3c-5.2-4-11-6.8-17.4-8.3c5.2-1.6,10-4.3,14.3-8.1c7.5-6.6,11.3-15.7,11.3-27.1
		c0-11.3-3.8-20.4-11.3-27.1c-7.3-6.5-16-9.8-26-9.8c-9.9,0-18.6,3.3-25.9,9.8c-7.5,6.6-11.3,15.7-11.3,27.1
		c0,11.4,3.8,20.5,11.3,27.1c4.3,3.8,9.1,6.5,14.2,8c-6.4,1.5-12.2,4.3-17.4,8.3c-8.6,6.6-12.9,15.8-12.9,27.3v29.6
		c0,7.4,6.7,13.5,14.8,13.5h54.4c8.2,0,14.8-6.1,14.8-13.5v-29.6C142,121.1,137.7,111.9,129.1,105.3z M71.8,61.9
		c0-8.8,2.7-15.4,8.2-20.3c5.7-5.1,12.2-7.5,20-7.5c7.8,0,14.3,2.5,20,7.5l0,0c5.5,4.9,8.2,11.5,8.2,20.3c0,8.8-2.7,15.5-8.2,20.4
		c-5.7,5-12.3,7.5-20,7.5c-7.7,0-14.2-2.5-20-7.5C74.5,77.4,71.8,70.7,71.8,61.9z M133,162.2c0,2.4-2.7,4.5-5.8,4.5H72.8
		c-3.2,0-5.8-2.1-5.8-4.5v-29.6c0-8.6,3.1-15.2,9.4-20.1c6.7-5.2,14.4-7.7,23.6-7.7c9.2,0,16.9,2.5,23.6,7.7
		c6.3,4.9,9.4,11.5,9.4,20.1V162.2z"/>
	<path class="st0" d="M115.6,78.3c4.6-4,6.9-9.6,6.9-16.4h-9c0,4.2-1.3,7.4-3.8,9.7c-2.8,2.4-5.9,3.6-9.7,3.6
		c-3.7,0-6.9-1.2-9.6-3.6c-2.6-2.3-3.8-5.5-3.8-9.7h-9c0,6.9,2.3,12.4,6.9,16.4c4.4,3.9,9.7,5.9,15.6,5.9
		C105.9,84.2,111.2,82.2,115.6,78.3z"/>
	<path class="st0" d="M57.7,75c0-7.3-2.5-13.2-7.3-17.5c-4.7-4.2-10.3-6.3-16.7-6.3c-6.4,0-12,2.1-16.7,6.3l0,0
		C12.2,61.8,9.7,67.7,9.7,75c0,7.3,2.5,13.2,7.3,17.5c2.3,2,4.8,3.6,7.5,4.6c-3.9,1.2-7.5,3.3-10.7,6.1c-5.8,5.1-8.7,12.1-8.7,20.8
		v20.3c0,7.4,6.1,13.5,13.5,13.5h29.6v-9H18.7c-2.5,0-4.5-2-4.5-4.5V124c0-6.1,1.8-10.7,5.7-14c3.9-3.5,8.5-5.2,13.9-5.2
		c5.4,0,9.9,1.7,13.9,5.2l6-6.7c-3.2-2.9-6.8-4.9-10.7-6.1c2.7-1,5.2-2.6,7.5-4.6C55.2,88.2,57.7,82.3,57.7,75z M44.4,85.7
		c-3,2.7-6.5,4-10.7,4c-4.1,0-7.6-1.3-10.7-4c-2.9-2.5-4.3-6.1-4.3-10.7c0-4.7,1.4-8.2,4.3-10.8c3-2.7,6.5-4,10.7-4
		c4.2,0,7.7,1.3,10.7,4c2.9,2.6,4.3,6.1,4.3,10.8C48.7,79.7,47.3,83.2,44.4,85.7z"/>
	<path class="st0" d="M186.1,103.2c-3.2-2.9-6.8-4.9-10.7-6.1c2.7-1,5.2-2.6,7.5-4.6c4.9-4.3,7.3-10.2,7.3-17.5
		c0-7.3-2.5-13.2-7.3-17.5h0c-4.7-4.2-10.3-6.3-16.7-6.3c-6.4,0-12,2.1-16.7,6.3c-4.9,4.3-7.3,10.2-7.3,17.5
		c0,7.3,2.5,13.2,7.3,17.5c2.3,2,4.8,3.6,7.5,4.6c-3.9,1.2-7.5,3.3-10.7,6.1l6,6.7c4-3.5,8.5-5.2,13.9-5.2c5.4,0,9.9,1.7,13.9,5.2
		c3.8,3.4,5.6,7.9,5.6,14v20.3c0,2.5-2,4.5-4.5,4.5h-29.6v9h29.6c7.4,0,13.5-6.1,13.5-13.5V124C194.8,115.3,191.9,108.3,186.1,103.2
		z M151.3,75c0-4.7,1.4-8.2,4.3-10.8c3-2.7,6.5-4,10.7-4c4.2,0,7.6,1.3,10.7,4c2.9,2.6,4.3,6.1,4.3,10.8c0,4.7-1.4,8.2-4.3,10.8
		c-3,2.7-6.5,4-10.7,4c-4.2,0-7.7-1.3-10.7-4C152.7,83.2,151.3,79.7,151.3,75z"/>
</g>
</svg>
