<?xml version="1.0" encoding="utf-8"?>
<!-- Generator: Adobe Illustrator 19.1.0, SVG Export Plug-In . SVG Version: 6.00 Build 0)  -->
<svg version="1.1" id="Layer_1" xmlns="http://www.w3.org/2000/svg" xmlns:xlink="http://www.w3.org/1999/xlink" x="0px" y="0px"
	 viewBox="0 0 200 200" style="enable-background:new 0 0 200 200;" xml:space="preserve">
<style type="text/css">
	.st0{fill:#0082CA;}
	.st1{fill:none;stroke:#0082CA;stroke-width:9;stroke-miterlimit:10;}
	.st2{fill:#FFFFFF;}
	.st3{fill:#434344;}
</style>
<g>
	<path class="st0" d="M139.5,9.5H60.5C53,9.5,47,15.5,47,23V177c0,7.4,6.1,13.5,13.5,13.5h79.1c7.4,0,13.5-6.1,13.5-13.5V23
		C153,15.5,147,9.5,139.5,9.5z M60.5,18.5h79.1c2.5,0,4.5,2,4.5,4.5v5.7H56V23C56,20.5,58,18.5,60.5,18.5z M144,37.7v114.7H56V37.7
		H144z M139.5,181.5H60.5c-2.5,0-4.5-2-4.5-4.5v-15.7H144V177C144,179.5,142,181.5,139.5,181.5z"/>
	<circle class="st0" cx="100" cy="171.4" r="6.2"/>
	<polygon class="st0" points="92.3,54.7 85.9,48.4 73.2,61.1 68.4,56.3 62.1,62.7 73.2,73.8 	"/>
	<rect x="102.5" y="56.6" class="st0" width="29.1" height="9"/>
	<rect x="102.5" y="90.5" class="st0" width="29.1" height="9"/>
	<polygon class="st0" points="92.3,88.6 85.9,82.3 73.2,95 68.4,90.2 62.1,96.6 73.2,107.7 	"/>
	<rect x="102.5" y="124.4" class="st0" width="29.1" height="9"/>
	<polygon class="st0" points="73.2,128.9 68.4,124.1 62.1,130.5 73.2,141.6 92.3,122.6 85.9,116.2 	"/>
</g>
</svg>
