<?xml version="1.0" encoding="utf-8"?>
<!-- Generator: Adobe Illustrator 19.1.0, SVG Export Plug-In . SVG Version: 6.00 Build 0)  -->
<svg version="1.1" id="Layer_1" xmlns="http://www.w3.org/2000/svg" xmlns:xlink="http://www.w3.org/1999/xlink" x="0px" y="0px"
	 viewBox="0 0 200 200" style="enable-background:new 0 0 200 200;" xml:space="preserve">
<style type="text/css">
	.st0{fill:#0082CA;}
	.st1{fill:none;stroke:#0082CA;stroke-width:9;stroke-miterlimit:10;}
</style>
<g>
	<g>
		<path class="st0" d="M139.5,190.5H60.5C53,190.5,47,184.5,47,177V23C47,15.5,53,9.5,60.5,9.5h79.1C147,9.5,153,15.5,153,23V177
			C153,184.5,147,190.5,139.5,190.5z M60.5,18.5c-2.5,0-4.5,2-4.5,4.5V177c0,2.5,2,4.5,4.5,4.5h79.1c2.5,0,4.5-2,4.5-4.5V23
			c0-2.5-2-4.5-4.5-4.5H60.5z"/>
	</g>
	<g>
		<rect x="51.5" y="28.7" class="st0" width="97.1" height="9"/>
	</g>
	<g>
		<rect x="51.5" y="152.3" class="st0" width="97.1" height="9"/>
	</g>
	<g>
		<path class="st0" d="M100,165.1c-3.4,0-6.2,2.8-6.2,6.2s2.8,6.2,6.2,6.2s6.2-2.8,6.2-6.2S103.4,165.1,100,165.1L100,165.1z"/>
	</g>
	<g>
		<g>
			<g>
				<polygon class="st0" points="73.2,73.8 62.1,62.7 68.4,56.3 73.2,61.1 85.9,48.4 92.3,54.7 				"/>
			</g>
			<g>
				<rect x="102.5" y="56.6" class="st0" width="29.1" height="9"/>
			</g>
		</g>
		<g>
			<g>
				<g>
					<rect x="102.5" y="90.5" class="st0" width="29.1" height="9"/>
				</g>
			</g>
			<g>
				<polygon class="st0" points="73.2,107.7 62.1,96.6 68.4,90.2 73.2,95 85.9,82.3 92.3,88.6 				"/>
			</g>
		</g>
		<g>
			<g>
				<rect x="102.5" y="124.4" class="st0" width="29.1" height="9"/>
			</g>
			<g>
				<polygon class="st0" points="73.2,141.6 62.1,130.5 68.4,124.1 73.2,128.9 85.9,116.2 92.3,122.6 				"/>
			</g>
		</g>
	</g>
</g>
</svg>
