<?xml version="1.0" encoding="utf-8"?>
<!-- Generator: Adobe Illustrator 19.1.0, SVG Export Plug-In . SVG Version: 6.00 Build 0)  -->
<svg version="1.1" id="Layer_1" xmlns="http://www.w3.org/2000/svg" xmlns:xlink="http://www.w3.org/1999/xlink" x="0px" y="0px"
	 viewBox="0 0 200 200" style="enable-background:new 0 0 200 200;" xml:space="preserve">
<style type="text/css">
	.st0{stroke:#0082CA;stroke-width:9;stroke-miterlimit:10;}
</style>
<g>
	<path d="M185,59.4c3.5-8.3,4.7-6.7-2.1-14.1c-0.3-0.3-0.7-0.6-1-1c-0.7-0.9-1.4-4.7-1-6.2c0.7-3.3-1.1-5.9-2.6-8.5
		c-2.6-4.5-8.2-5.3-11.7-8.9c-0.4-0.4-1.3-0.1-2-0.3c-3.9-0.9-7.3,1.9-11.3,1.6c-1.5-0.1-3,1.5-4.6,2.2c-3.7,1.7-6.7,4.2-9.7,6.9
		c-9.7,8.8-16,20-22.1,31.3c-3.4,6.3-6.5,12.7-10.7,18.6c-2.4,3.4-5,6.1-8.6,7.8c-5.8,2.8-11.7,5.3-17.9,7.3
		c-7.1,2.3-12.2,7.9-17.9,12.3c-6.3,4.9-11.3,6.6-18.9,5.5c-7.2-1.1-11.9-8.1-9.5-14.8c3-8.4,10-12.5,17.6-15.8
		c0.9-0.4,2.1-0.3,3.2,0.6c1.8,1.6,4.2,2.4,6.3,3.3c3.3,1.4,6.7,3,10.6,3.1c5.5,0.1,10.3-2.2,14.7-4.8c3-1.8,5.5-4.6,5.9-8.6
		c0.1-0.6,0.3-1.5-0.5-1.8c-0.5-0.2-1.4-0.2-1.8,0.2c-1.2,1-2.2,2.4-3.5,3.4c-3.5,2.6-9.4,2.8-10.6-0.5c-2.1-5.5-6-4.8-10-4.7
		c-2.7,0.1-5.7-1-8.1,0.5c-4.6,2.9-10.5,2.8-14.8,6.3c-9.2,1.5-12.4,9.1-15.9,16.1c-1.1,2.2,0.1,14.7,2.2,18
		c4.5,7.1,12.2,10.5,20.2,8.3c2.6-0.7,5.2-2,8-1.3c-0.9,2.6-1.8,5.3-2.8,7.9c-0.2,0.6-0.9,1.1-1,1.7c-0.7,4.1-3.9,6.2-7,7.8
		c-3.4,1.8-5.6,4.5-7.1,7.7c-2.9,6.4-5.9,12.7-10.9,17.8c-2.1,2.2-9.9,7.5-13.1,8.1c-2,0.4-3,2.5-2.8,5.4c0.2,2.4,1.9,1.5,3.1,1.5
		c55.1,0,110.1,0,165.2,0c0.2,0,0.5,0,0.7,0c2.2,0.4,2.7-0.7,2.6-2.7c-0.1-5.2,0.2-4.2-3.9-4.2c-2.6,0-5.1,0-7.7,0
		c-2.8,0-2.8-0.1-6.3-3.1c-2-1.7-4.4-2.9-7.3-2.5c5.1,4.5,1.9,7.4-0.6,6.8c-1.1-0.3-0.9-0.7-2-2c-1.1-1.3-1-2.5-2-3
		c-0.5-0.3-1.4-0.4-1.8-0.1c-1.1,0.7,0.3,0.9,0.4,1.4c1,3.3,0.7,3.8-2.1,3.9c-3.5,0.2-6.6,0.1-8-4.2c-0.4-1.2-1.7-2.5-3.6-2.9
		c-2-0.4-2.2-2.3-2.7-4.1c-1-3.7-1.6-7.6-3.2-11.2c-1.4-3.3-3.9-6.4-3.7-10.3c-4.1-5.4-5-12.7-10.3-17.3c-0.5-0.5-1.2-1.3-0.8-1.7
		c2.9-2.4,0-6.2,2.5-8.8c1-1-2.2-7.4-3.7-7.7c-1.7-0.4-1.6,1-1.7,2.2c-0.5,8-5.7,13-13.7,13.1c-5.1,0.1-10.2,0-15.3,0
		c-1.4,0-2.6,0-3.7,1.3c-3.5,4.2-8.3,7.1-10.9,12.2c-0.7,1.4-2.1,2.6-3.4,3.4c-4.4,2.8-8.9,5.4-13.5,7.9c-0.7,0.4-2.2,0.6-2.6,0.2
		c-2.1-2-2.8,0.1-4.1,1c-1.3,0.9-1.3,2.3-1.9,3.5c-2.3,4.6-3.8,13.7-3.5,19c0.1,1.1,0.6,2.5-0.7,3c-0.3,0.1-1.3-1.2-1.9-1.9
		c-1-1-1.5-0.7-1.5,0.6c0.2,2.9-0.4,3.5-2.5,1.1c-1.3-1.5-2.6-2.2-3.1,0.7c-0.1,0.4-0.5,0.7-0.7,1c-0.2-0.4-0.6-0.7-0.6-1.1
		c-0.8-4.9,1.1-9.1,3.8-13.1c2.8-4.2,6.2-8.1,8.6-12.5c2.3-4.3,5.2-7.6,9.6-9.6c2.9-1.3,6.4-3,6.9-6.2c0.4-3.3,2.5-6.3,1.8-9.8
		c-0.2-1-0.3-2.2,0.3-3.3c2.6-4.3,4.6-8.9,7.5-12.9c2.5-3.4,6.2-5.3,10.2-7.1c7.1-3.1,14.9-4.4,21.6-8.4c2.5-1.5,3.4,0.6,3.3,1.1
		c-0.5,5.6,2.8,8.6,7,11c0.6,0.3,1,0.9,1.5,0c0.2-0.4,0.2-1,0-1.4c-3.4-10-3.5-10.6-1.4-16.4c1-2.8,5.9-8.3,6.6-7.6
		c2.2,2.6,3.3,5.7,3.2,9.1c0,0.9,0.1,1.9,0,2.8c-0.2,1.5,1.8,2,1.5,3.6c-0.1,0.6,0.7,0.7,1.3,0.1c0.8-0.8,1.4-1.6,1.5-2.9
		c0.1-0.7,1.3-0.9,1.7-0.6c1.3,1,2.6,2,3.5,3.3c1.1,1.7,2.6-1.9,3.6,0.6c1.6,4,5.3,6.6,7.3,10.2c2.1,3.8,3.2,7.7,0.6,11.9
		c-1.7,2.7-2.1,6.1-3.7,8.9c-1,1.8-0.5,3.6,0.2,5.7c1.4,4.5,3.1,9,3.5,13.9c0.3,3.4,1.5,6.8,2.8,10c0.5,1.2,1.3,2.2,1.3,3.6
		c0.3,4.7,2.6,7.4,6.9,8.4c0.2,0.1,0.5,0.1,0.7,0c0.6-0.3,0.7-0.7,0.4-1c-3.1-2.1-2.7-5.9-4.3-8.7c-3-5.1-2.7-11.2-1.2-17.4
		c1-4,3.7-7.5,3.6-11.8c0-1.1,2.7-4.2,3.8-5.3c4.2-4.2,8.8-8,11.8-13.3c1.2-2,1.2-4.8,2.6-6.6c4.7-6.1,5.8-13.1,6.4-20.4
		c0.1-1.1-0.4-2.3,0.4-3.3c1.6-2,1.3-3.9,0.1-6.2c-1.3-2.5-1-2.7,2.3-2.4c2.7,0.2,3.9-1.2,4.3-4C185.6,63.4,184,61.9,185,59.4z
		 M112.2,138c2.1-0.5,3.8-2.7,5.9-1.7c1.8,0,2.4,0.1,3.2,1.9c2.7,7,6.7,13.4,8.3,20.8c0.4,1.7,2,2.8,0,4.6c-0.6,0.5-0.7,2.7,0.8,3.6
		c1.5,0.9,1.5,2.7,2.5,3.8c0.9,1,1.3,2.2,0,2.8c-0.8,0.4-2.2,0.6-3.2-0.3c-0.2-0.2-0.4-0.3-0.5-0.5c-1.5-4.6-5.6-5.5-9.5-6.8
		c-2-0.7-3.5-1.8-4.6-4.1c-0.9-2-2.3-4.2-4.1-6c-3-2.9-2.8-7.3-3.6-10.9C106.8,142.3,109.3,138.6,112.2,138z M103.7,156.9
		c1.5-2.3,1-2.3,3.1-0.7c3.2,2.4,3.9,6.4,6.2,9.3c1.6,2.1,3.2,4.3,5,6.3c0.5,0.5,2.1,0.8,1,1.9c-0.5,0.5-1.9,0.6-2.6,0.2
		c-1.4-0.7-2.7-1.2-4.3-1.4c-5.8-0.8-9.3-5.2-9.3-11C103.1,160,102.7,158.5,103.7,156.9z M49.2,158.7c2.4-2.8,5-5.6,7.9-7.8
		c1.2-0.9,2.8-1.9,4.7-2.1c8.2-1.1,15-5.4,21.5-10.3c0.9-0.7,1.6-1.8,2.6-2.1c0.9-0.3,3.1-0.4,2.9,0.7c-0.6,2.8,3.1,4.8,0.6,8.2
		c-1.9,2.6-0.6,6.7,1.8,9.2c3.8,3.9,6.3,8.5,8.6,13.2c1,2,2.5,3.1,3.6,4.8c0.2,0.3,0.4,0.7,0.6,1c-0.4,0.2-0.8,0.5-1.2,0.5
		c-8.1,0-16.3,0-24.4,0c-7.7,0-15.3-0.1-23,0.1c-2.5,0.1-4.2-0.3-5-2.9c-0.2-0.8-1.4-1.2-1.9-2C46.4,165.7,46.5,161.8,49.2,158.7z
		 M133.6,49.8c0.3-9.1,4.7-14.9,11-19.4c1.4-1,2.8-2.1,4.2-3.1c3.8-2.7,8.4-2.1,12.4-3.8c0.8-0.3,3.9,0.2,4.5,2.7
		c0.3,1.3,1.7,2,1.7,3.5c0,0.6,1.3,1.9,1.8,1.7c1-0.2,0.6-1.5,0.7-2.4c0.2-2.1,1.4-2.1,2.7-1c0.6,0.5,1.7,1,1.5,2.1
		c1.4,0,1.9,1.2,2.6,2c0.6,0.7,0.4,1.9-0.7,2.1c-4,1-7.8,2.6-11.8-0.6c-2-1.6-5.1-2.4-7.4-3.8c-2.5-1.6-4.8-1-7.2-1
		c-0.6,0-1.9,1.2-1.8,1.9c0,1.1,1.3,0.7,2.1,0.8c0.6,0.1,1.2,0.4,1.8,0.7c-0.4,0.6-1.1,0.9-1.7,0.7c-2.2-0.6-3.8,1-5.7,1.4
		c-0.6,0.1-1.3,0.6-0.3,1.2c0.6,0.4,2-0.3,1.9,1c0,0.4-1.6,0.5-2.2,1c-3.6,3.1-6.5,6.7-8.6,11C134.7,49.4,134.5,50,133.6,49.8z
		 M165.5,106c-1.7,2.8-2.9,6.7-6.8,7.9c-0.1-6.2,2.3-11.3,3.5-16.6c0.9-4.1,1.3-8.1-0.8-11.6c-2.3-3.9-3.4-8.5-6.8-11.8
		c-0.3-0.3,0-1.6-0.7-1.7c-0.6,0-0.7,0.9-0.7,1.6c-0.1,3.4,1.5,6.2,3.1,9.2c2.5,4.5,4,9.3,1.1,14.4c-0.2,0.4-0.4,0.8-0.6,1.1
		c-0.3-0.3-0.7-0.6-0.8-0.9c-0.5-4.9-2.8-9-5.6-13c-1-1.4-2.1-3-1.4-5c0.7-2-1-3.3-1.4-5c-0.3-1.3-0.6-1.4-1.4-0.2
		c-1.5,2.2-1.4,1.9-2.8,0c-4.5-6.2-3-12.6-0.8-18.9c0.3-0.8,0.9-1.5,0.8-2.4c0-0.4,0.1-1-0.1-1.3c-0.6-1-1-0.1-1.4,0.3
		c-1.1,0.7-2.4,0.8-3.4,1.9c-0.8,0.9-1.6,3.4-3.3,2c-1.2-1,0.8-2.4,1.4-3.4c2.5-4.8,4.8-9.6,10.1-12.5c3-1.7,5.8-3,9.2-2.8l0.6,0.4
		c-0.9,3.5-2.8,5.6-4,7.8c-2.9,5.5-3.8,11.3-3.5,17.4c0.1,1.6,1.4,2.2,1.5,3.6c0,0.7,0.1,1.3,0.9,1.2c0.2,0,0.4-0.7,0.5-1.1
		c0-1.9,0.1-3.7,0-5.6c-0.2-3.9,0.9-7.4,2.8-10.7c0.3-0.5,0-1.6,0.7-1.7c0.6-0.1,0.8,0.9,0.7,1.6c-0.8,9.5,3.6,16.7,10,23
		c3.5,3.4,4.9,7.7,5.3,12.4C172,94.8,170.3,98.1,165.5,106z M180.9,65.2c-0.4-0.1-0.9,0-1.4,0c-0.7,0-1.4,0-2,0
		c-0.2,0-0.5-0.3-0.5-0.5c0.1-0.3,0.3-0.7,0.5-1c1-1.6,2.6-1.5,4.2-1.2c0.3,0.1,0.7,1.1,0.6,1.7C182.3,64.9,181.7,65.3,180.9,65.2z
		 M184.2,52.6c-0.9,0.1-1.9-0.1-2.8,0.1c-0.6,0.1-1.2,0.4-1.8,0.7c0.6,0.2,1.2,0.4,1.8,0.7c1.5,0.7,1,2.7,2.3,3.6
		c-1,0.8-1.6,2.2-3.4,2c-0.6-0.1-1.1,1.2-2.2,1.4c-1.6,0.2-2.6-0.5-3.5-1.6c-1-1.2-0.5-1.9,0.3-2.9c1.2-1.5,0.7-2.5-1.3-2.5
		c-2,0-4.1,0.4-4.4-2.6c0-0.4-1.9-0.4-2.1,0.7c-0.3,1.3-0.1,2.8,0,4.1c0.1,2.3-2.1,2.8-3.1,4.3c-0.3,0.5-0.9,0.6-0.9-0.1
		c-0.3-2-2.9-3.7-1.5-5.5c1.9-2.4,1-4.8,1.3-7.1c0.2-1.6-0.6-4.3,0.5-4.5c3.2-0.4,2.2-4.9,5.6-4.8c1.2,0,2.1-2.2,4-0.4
		c1.2,1.2,3.8,1.2,3.8,3.5c0.1,3,2,4.4,4.3,5.5c0.6,0.3,1.1,0.7,1.6,1.1C185,52.2,184.6,52.5,184.2,52.6z"/>
	<path d="M175.1,45.5c-2.4-0.7,0.4-4.3-2.6-5c-0.4-0.1-0.8-0.5-1.2-0.5c-0.7-0.1-1.6,0.4-1.2,0.8c1.1,1.1,0.9,1.6-0.1,2.6
		c-0.5,0.5-3.2,1.5,0.1,2.2c3.2,0.7,5.1,3.4,7.5,5.5c0.2,0.2,1,0.1,1.3-0.1c0.3-0.2,0.5-0.7,0.7-1.1c0-0.2,0.1-0.6,0-0.7
		C178.2,47.9,177.3,46.2,175.1,45.5z"/>
</g>
</svg>
