<svg xmlns="http://www.w3.org/2000/svg" viewBox="0 0 200 200"><path class="icon-svg" d="M100,14.5c-30.3,0-55,24.7-55,55c0,58.1,49.2,110,51.3,112.2l3.7,3.9l3.7-3.9c0.5-0.6,13-14.1,25.6-34.6 c17.1-27.8,25.7-53.9,25.7-77.5C155,39.2,130.3,14.5,100,14.5z M99.9,170.4c-11.4-13.2-44.8-55.8-44.8-101 c0-24.7,20.1-44.8,44.8-44.8s44.8,20.1,44.8,44.8C144.8,113,111.3,156.9,99.9,170.4z"/><path class="icon-svg" d="M100,42.7c-14.8,0-26.8,12-26.8,26.8s12,26.8,26.8,26.8s26.8-12,26.8-26.8S114.8,42.7,100,42.7z M100,86.1 c-9.2,0-16.6-7.5-16.6-16.6s7.5-16.6,16.6-16.6s16.6,7.5,16.6,16.6S109.2,86.1,100,86.1z"/></svg>