<?xml version="1.0" encoding="utf-8"?>
<!-- Generator: Adobe Illustrator 19.1.0, SVG Export Plug-In . SVG Version: 6.00 Build 0)  -->
<svg version="1.1" id="Layer_1" xmlns="http://www.w3.org/2000/svg" xmlns:xlink="http://www.w3.org/1999/xlink" x="0px" y="0px"
	 viewBox="0 0 200 200" style="enable-background:new 0 0 200 200;" xml:space="preserve">
<style type="text/css">
	.st0{stroke:#0082CA;stroke-width:9;stroke-miterlimit:10;}
</style>
<g>
	<g>
		<path d="M63.5,171.2v-36.4H38c-7.4,0-13.5-6.1-13.5-13.5V42.3c0-7.4,6.1-13.5,13.5-13.5H162c7.4,0,13.5,6.1,13.5,13.5v79.1
			c0,7.4-6.1,13.5-13.5,13.5H99.8L63.5,171.2z M38,37.8c-2.5,0-4.5,2-4.5,4.5v79.1c0,2.5,2,4.5,4.5,4.5h34.5v23.6l23.6-23.6H162
			c2.5,0,4.5-2,4.5-4.5V42.3c0-2.5-2-4.5-4.5-4.5H38z"/>
	</g>
	<g>
		<g>
			<g>
				<rect x="53.4" y="57.4" width="93.3" height="9"/>
			</g>
		</g>
		<g>
			<g>
				<g>
					<rect x="53.4" y="76.8" width="93.3" height="9"/>
				</g>
			</g>
		</g>
		<g>
			<g>
				<rect x="53.4" y="96.3" width="93.3" height="9"/>
			</g>
		</g>
	</g>
</g>
</svg>
