<?xml version="1.0" encoding="utf-8"?>
<!-- Generator: Adobe Illustrator 19.1.0, SVG Export Plug-In . SVG Version: 6.00 Build 0)  -->
<svg version="1.1" id="Layer_1" xmlns="http://www.w3.org/2000/svg" xmlns:xlink="http://www.w3.org/1999/xlink" x="0px" y="0px"
	 viewBox="0 0 200 200" style="enable-background:new 0 0 200 200;" xml:space="preserve">
<style type="text/css">
	.st0{fill:#0082CA;}
	.st1{fill:none;stroke:#0082CA;stroke-width:9;stroke-miterlimit:10;}
	.st2{fill:#FFFFFF;}
	.st3{fill:#434344;}
</style>
<g>
	<g>
		<g>
			<path class="st0" d="M114,159.6H86c-2.8,0-5.6-1.2-7.5-3.2c-2-2-3-4.7-3-7.5c0.2-7.6-3.3-11.6-8-17.1
				c-6.4-7.4-14.3-16.5-14.3-36.7c0-14.3,4.8-25.7,14.1-34c9.2-8.2,20.2-12.3,32.7-12.3c12.5,0,23.5,4.1,32.7,12.3
				c9.4,8.3,14.1,19.7,14.1,34c0,20.2-7.9,29.4-14.3,36.7c-4.8,5.5-8.2,9.5-8,17.1c0.1,2.8-1,5.5-3,7.5
				C119.6,158.5,116.8,159.6,114,159.6z M100,57.7c-10.4,0-19.1,3.3-26.7,10.1c-7.5,6.6-11.1,15.5-11.1,27.3
				c0,16.8,6.2,24,12.1,30.9c5.2,6,10.5,12.2,10.2,23.3c0,0.5,0.2,0.8,0.4,1c0.2,0.2,0.5,0.5,1.1,0.5h28c0.6,0,0.9-0.3,1.1-0.5
				c0.2-0.2,0.4-0.5,0.4-1c-0.3-11.1,5.1-17.3,10.2-23.3c6-6.9,12.1-14,12.1-30.9c0-11.8-3.6-20.7-11.1-27.3
				C119.1,61,110.4,57.7,100,57.7z"/>
		</g>
	</g>
	<g>
		<g>
			<path class="st0" d="M111.4,141.9h-9v-23.4h-4.7v23.4h-9v-23.4h-3.4c-6.8,0-12.4-5.6-12.4-12.4s5.6-12.4,12.4-12.4
				s12.4,5.6,12.4,12.4v3.4h4.7v-3.4c0-6.8,5.6-12.4,12.4-12.4s12.4,5.6,12.4,12.4s-5.6,12.4-12.4,12.4h-3.4V141.9z M111.4,109.5
				h3.4c1.9,0,3.4-1.5,3.4-3.4c0-1.9-1.5-3.4-3.4-3.4s-3.4,1.5-3.4,3.4V109.5z M85.3,102.7c-1.9,0-3.4,1.5-3.4,3.4
				c0,1.9,1.5,3.4,3.4,3.4h3.4v-3.4C88.6,104.3,87.1,102.7,85.3,102.7z"/>
		</g>
	</g>
	<g>
		<g>
			<rect x="84" y="165.6" class="st0" width="32" height="9"/>
		</g>
	</g>
	<g>
		<g>
			<path class="st0" d="M87.5,180.4c1.4,5.6,6.5,9.8,12.5,9.8s11.1-4.2,12.5-9.8H87.5z"/>
		</g>
	</g>
	<g>
		<g>
			<g>
				
					<rect x="147.5" y="31.1" transform="matrix(0.7071 0.7072 -0.7072 0.7071 74.3512 -95.1384)" class="st0" width="9" height="22.1"/>
			</g>
		</g>
		<g>
			<g>
				<rect x="14.8" y="90.6" class="st0" width="22.1" height="9"/>
			</g>
		</g>
		<g>
			<g>
				
					<rect x="42.6" y="136" transform="matrix(0.7071 0.7071 -0.7071 0.7071 117.7893 9.7604)" class="st0" width="9" height="22.1"/>
			</g>
		</g>
		<g>
			<g>
				<rect x="163.1" y="90.6" class="st0" width="22.1" height="9"/>
			</g>
		</g>
		<g>
			<g>
				
					<rect x="141" y="143.4" transform="matrix(0.7071 0.7071 -0.7071 0.7071 149.1349 -64.1517)" class="st0" width="22.1" height="9"/>
			</g>
		</g>
		<g>
			<g>
				<rect x="95.5" y="9.8" class="st0" width="9" height="22.1"/>
			</g>
		</g>
		<g>
			<g>
				
					<rect x="36.1" y="38.6" transform="matrix(0.7071 0.7071 -0.7071 0.7071 44.2398 -20.7035)" class="st0" width="22.1" height="9"/>
			</g>
		</g>
	</g>
</g>
</svg>
