<?xml version="1.0" encoding="utf-8"?>
<!-- Generator: Adobe Illustrator 19.1.0, SVG Export Plug-In . SVG Version: 6.00 Build 0)  -->
<svg version="1.1" id="Layer_1" xmlns="http://www.w3.org/2000/svg" xmlns:xlink="http://www.w3.org/1999/xlink" x="0px" y="0px"
	 viewBox="-325 257 140 100" style="enable-background:new -325 257 140 100;" xml:space="preserve">
<g>
	<path d="M-274.6,288.8c-1.1-0.5-4.6-1.8-6-2.1c-1.4-0.3-2.8-0.5-4.1-0.7c-1.4-0.2-2.8-0.4-4.1-0.5c-1.4-0.1-2.5-0.2-3.5-0.2
		c-5.4,0-10.3,0.5-14.7,1.5s-8.2,2.1-11.5,3.2v60.4h18.1v-48.7c0.8-0.2,2-0.5,3.6-0.7s2.9-0.3,4.1-0.3c2.3,0,8.2,1.1,10.4,1.6
		c0.2-1,0.6-2,1-3C-279.6,295.1-277.4,291.6-274.6,288.8z"/>
	<path d="M-216.6,305.2L-216.6,305.2c-1.3-4.8-3.4-8.8-6.3-11.9c-5.3-5.5-12.4-8.3-21.5-8.3c-3.9,0-7.7,0.7-11.3,2.2
		c-3.7,1.5-6.9,3.6-9.8,6.4c-2.8,2.8-5.1,6.4-6.9,10.6c-1.7,4.2-2.6,9.2-2.6,14.9c0,4.7,0.7,9.1,2,13.1c1.3,4,3.4,7.5,6.2,10.5
		s6.3,5.3,10.6,7c4.2,1.7,9.2,2.5,15,2.5c2.3,0,4.5-0.1,6.8-0.4c2.3-0.2,4.4-0.5,6.4-0.9c2-0.4,3.8-0.8,5.4-1.3
		c1.6-0.5,2.9-1,3.9-1.5l-2.4-14.7c-2,0.9-4.6,1.6-7.8,2.2c-3.2,0.6-6.5,0.9-9.8,0.9c-5.2,0-9.3-1.1-12.4-3.3
		c-3.1-2.2-4.8-5.1-5.2-8.9h33.6c-0.3-1.3-0.4-2.7-0.4-4.2c0-2.1,0.3-4.1,0.9-5.9C-221.1,310.1-218.8,307.1-216.6,305.2z
		 M-256.4,312.2c0.2-1.5,0.6-3.1,1.2-4.6c0.5-1.5,1.3-2.8,2.2-3.9c1-1.1,2.2-2,3.6-2.7c1.5-0.7,3.2-1,5.2-1c2.1,0,3.9,0.4,5.3,1.1
		c1.4,0.7,2.6,1.7,3.5,2.8c0.9,1.1,1.6,2.4,2.1,3.9c0.4,1.5,0.7,3,0.8,4.5L-256.4,312.2C-256.4,312.3-256.4,312.2-256.4,312.2z"/>
	<path d="M-219.3,266.4c0,1.4,0.5,2.6,1.4,3.4c0.9,0.8,2,1.2,3.3,1.2s2.4-0.4,3.3-1.2c0.9-0.8,1.4-2,1.4-3.4c0-1.4-0.5-2.6-1.4-3.4
		c-0.9-0.8-2-1.2-3.3-1.2s-2.4,0.4-3.3,1.2C-218.8,263.8-219.3,264.9-219.3,266.4z"/>
	<path d="M-207.6,297.7c0,2.1,0.7,3.7,2,4.8c1.3,1.2,2.9,1.8,4.7,1.8s3.4-0.6,4.7-1.8c1.3-1.2,2-2.8,2-4.8s-0.7-3.7-2-4.8
		c-1.3-1.2-2.9-1.8-4.7-1.8s-3.4,0.6-4.7,1.8C-207.1,294-207.6,295.6-207.6,297.7z"/>
	<path d="M-213.8,320.3c0,3.5,1.1,6.2,3.3,8.1c2.2,2,4.8,3,7.9,3c3,0,5.7-1,7.9-3s3.3-4.7,3.3-8.1c0-3.4-1.1-6.2-3.3-8.1
		c-2.2-2-4.9-3-7.9-3s-5.6,1-7.9,3C-212.8,314.1-213.8,316.9-213.8,320.3z"/>
</g>
</svg>
