<svg xmlns="http://www.w3.org/2000/svg" viewBox="-162.2 257 140 100"><path class="svg-logotype-orange" d="M-111.9 288.8c-1.1-0.5-4.6-1.8-6-2.1 -1.4-0.3-2.8-0.5-4.1-0.7 -1.4-0.2-2.8-0.4-4.1-0.5 -1.4-0.1-2.5-0.2-3.5-0.2 -5.4 0-10.3 0.5-14.7 1.5s-8.2 2.1-11.5 3.2v60.4h18.1v-48.7c0.8-0.2 2-0.5 3.6-0.7s2.9-0.3 4.1-0.3c2.3 0 8.2 1.1 10.4 1.6 0.2-1 0.6-2 1-3C-116.9 295.1-114.7 291.6-111.9 288.8z"/><path class="svg-logotype-orange" d="M-53.9 305.2L-53.9 305.2c-1.3-4.8-3.4-8.8-6.3-11.9 -5.3-5.5-12.4-8.3-21.5-8.3 -3.9 0-7.7 0.7-11.3 2.2 -3.7 1.5-6.9 3.6-9.8 6.4 -2.8 2.8-5.1 6.4-6.9 10.6 -1.7 4.2-2.6 9.2-2.6 14.9 0 4.7 0.7 9.1 2 13.1s3.4 7.5 6.2 10.5 6.3 5.3 10.6 7c4.2 1.7 9.2 2.5 15 2.5 2.3 0 4.5-0.1 6.8-0.4 2.3-0.2 4.4-0.5 6.4-0.9 2-0.4 3.8-0.8 5.4-1.3s2.9-1 3.9-1.5l-2.4-14.7c-2 0.9-4.6 1.6-7.8 2.2 -3.2 0.6-6.5 0.9-9.8 0.9 -5.2 0-9.3-1.1-12.4-3.3s-4.8-5.1-5.2-8.9H-60c-0.3-1.3-0.4-2.7-0.4-4.2 0-2.1 0.3-4.1 0.9-5.9C-58.4 310.1-56 307.1-53.9 305.2zM-93.7 312.2c0.2-1.5 0.6-3.1 1.2-4.6 0.5-1.5 1.3-2.8 2.2-3.9 1-1.1 2.2-2 3.6-2.7 1.5-0.7 3.2-1 5.2-1 2.1 0 3.9 0.4 5.3 1.1s2.6 1.7 3.5 2.8 1.6 2.4 2.1 3.9c0.4 1.5 0.7 3 0.8 4.5L-93.7 312.2C-93.7 312.3-93.7 312.2-93.7 312.2z"/><path class="svg-logotype-suds2" d="M-56.6 266.4c0 1.4 0.5 2.6 1.4 3.4s2 1.2 3.3 1.2 2.4-0.4 3.3-1.2c0.9-0.8 1.4-2 1.4-3.4s-0.5-2.6-1.4-3.4 -2-1.2-3.3-1.2 -2.4 0.4-3.3 1.2S-56.6 264.9-56.6 266.4z"/><path class="svg-logotype-suds1" d="M-44.9 297.7c0 2.1 0.7 3.7 2 4.8 1.3 1.2 2.9 1.8 4.7 1.8s3.4-0.6 4.7-1.8 2-2.8 2-4.8 -0.7-3.7-2-4.8c-1.3-1.2-2.9-1.8-4.7-1.8s-3.4 0.6-4.7 1.8C-44.3 294-44.9 295.6-44.9 297.7z"/><path class="svg-logotype-blue" d="M-51.1 320.3c0 3.5 1.1 6.2 3.3 8.1 2.2 2 4.8 3 7.9 3 3 0 5.7-1 7.9-3s3.3-4.7 3.3-8.1c0-3.4-1.1-6.2-3.3-8.1 -2.2-2-4.9-3-7.9-3s-5.6 1-7.9 3C-50 314.1-51.1 316.9-51.1 320.3z"/></svg>