<?xml version="1.0" encoding="utf-8"?>
<!-- Generator: Adobe Illustrator 19.1.0, SVG Export Plug-In . SVG Version: 6.00 Build 0)  -->
<svg version="1.1" id="Layer_1" xmlns="http://www.w3.org/2000/svg" xmlns:xlink="http://www.w3.org/1999/xlink" x="0px" y="0px"
	 viewBox="-155 257 480 100" style="enable-background:new -155 257 480 100;" xml:space="preserve">
<style type="text/css">
	.st0{fill:#FF6B00;}
	.st1{fill:#96CCEA;}
	.st2{fill:#52B3DF;}
	.st3{fill:#0082CA;}
</style>
<g>
	<g>
		<g>
			<g>
				<g>
					<g>
						<path class="st0" d="M-109.3,290.4c-1.1-0.5-4.6-1.8-6-2.1s-2.8-0.5-4.1-0.7c-1.4-0.2-2.8-0.4-4.1-0.5
							c-1.4-0.1-2.5-0.2-3.5-0.2c-5.4,0-10.3,0.5-14.7,1.5s-8.2,2.1-11.5,3.2V352h18.1v-48.7c0.8-0.2,2-0.5,3.6-0.7s2.9-0.3,4.1-0.3
							c2.3,0,8.2,1.1,10.4,1.6c0.2-1,0.6-2,1-3C-114.3,296.7-112.1,293.2-109.3,290.4z"/>
					</g>
				</g>
				<g>
					<path class="st0" d="M44.4,320.7c0-5.7,0.9-10.6,2.6-14.9c1.7-4.2,4-7.8,6.9-10.6c2.8-2.8,6.1-5,9.8-6.4
						c3.7-1.5,7.5-2.2,11.4-2.2c9.1,0,16.2,2.8,21.5,8.3s7.9,13.7,7.9,24.5c0,1.1,0,2.2-0.1,3.5s-0.2,2.4-0.2,3.3h-41
						c0.4,3.7,2.1,6.7,5.2,8.9c3.1,2.2,7.2,3.3,12.4,3.3c3.3,0,6.6-0.3,9.8-0.9c3.2-0.6,5.8-1.4,7.8-2.2l2.4,14.7
						c-1,0.5-2.3,1-3.9,1.5s-3.4,0.9-5.4,1.3c-2,0.4-4.1,0.7-6.4,0.9c-2.3,0.2-4.5,0.4-6.8,0.4c-5.8,0-10.7-0.8-15-2.5
						s-7.8-4-10.6-7s-4.9-6.5-6.2-10.5C45,329.8,44.4,325.4,44.4,320.7z M86.8,313.8c-0.1-1.5-0.3-3-0.8-4.5
						c-0.4-1.5-1.1-2.8-2.1-3.9c-0.9-1.1-2.1-2.1-3.5-2.8s-3.2-1.1-5.3-1.1c-2,0-3.8,0.3-5.2,1c-1.5,0.7-2.7,1.6-3.6,2.7
						c-1,1.1-1.7,2.4-2.2,3.9s-0.9,3-1.2,4.6L86.8,313.8L86.8,313.8z"/>
					<path class="st0" d="M197.4,290.5c3.1-0.9,7-1.7,11.9-2.5s10-1.2,15.3-1.2c5.4,0,9.9,0.7,13.5,2.1c3.6,1.4,6.5,3.4,8.6,6
						c2.1,2.6,3.6,5.7,4.5,9.2c0.9,3.6,1.3,7.5,1.3,11.9v36h-18.1v-33.7c0-5.8-0.8-10-2.3-12.4c-1.5-2.4-4.4-3.6-8.6-3.6
						c-1.3,0-2.7,0.1-4.1,0.2c-1.5,0.1-2.8,0.3-3.9,0.4v49.3h-18.1L197.4,290.5L197.4,290.5z"/>
					<path class="st0" d="M309.2,337.4c-3.2,0.6-6.5,0.9-9.8,0.9c-5.2,0-9.3-1.1-12.4-3.3c-3.1-2.2-4.8-5.1-5.2-8.9h41
						c0.1-1,0.2-2.1,0.2-3.3c0-0.6,0-1.1,0.1-1.6v-0.5v0.5c0-0.6,0.1-1.3,0.1-1.9c0-10.8-2.6-18.9-7.9-24.5
						c-5.3-5.5-12.4-8.3-21.5-8.3c-3.9,0-7.7,0.7-11.3,2.2c-3.7,1.5-6.9,3.6-9.8,6.4c-2.8,2.8-5.1,6.4-6.9,10.6
						c-1.7,4.2-2.6,9.2-2.6,14.9c0,4.7,0.7,9.1,2,13.1s3.4,7.5,6.2,10.5c2.8,3,6.3,5.3,10.6,7c4.2,1.7,9.2,2.5,15,2.5
						c2.3,0,4.5-0.1,6.8-0.4c2.3-0.2,4.4-0.5,6.4-0.9c2-0.4,10.7-1.8,12.3-2.3c0.3-0.1,0.5-0.2,0.7-0.2v-15.5
						C320.2,335.3,312.2,336.8,309.2,337.4z M283,309.2c0.5-1.5,1.3-2.8,2.2-3.9c1-1.1,2.2-2,3.6-2.7c1.5-0.7,3.2-1,5.2-1
						c2.1,0,3.9,0.4,5.3,1.1s2.6,1.7,3.5,2.8c0.9,1.1,1.6,2.4,2.1,3.9c0.4,1.5,0.7,3,0.8,4.5h-23.9
						C282.1,312.2,282.5,310.7,283,309.2z"/>
					<g>
						<path class="st0" d="M135.8,280.4c0.4-1.5,1-2.7,1.8-3.8c0.8-1,2-1.9,3.5-2.5c1.5-0.6,3.3-0.9,5.5-0.9c1.6,0,3.2,0.1,4.8,0.4
							c1.6,0.2,3,0.7,4.3,1.2l3.2-14.2c-1.5-0.6-3.4-1.3-5.6-1.8c-2.2-0.6-5-0.9-8.4-0.9c-9.1,0-16,2.4-20.7,7.3
							c-4.7,4.9-7,11.4-7,19.7v54.5l0,0V356l18.1-2.7v-1.2v-48.8h22.3v-15h-22.3v-3.2C135.3,283.4,135.5,281.9,135.8,280.4z"/>
						<rect x="168" y="288.3" class="st0" width="18.1" height="63.8"/>
					</g>
				</g>
				<path class="st0" d="M15.9,260.9v28.9c-2-0.9-4-1.6-6-2.1S5.7,287,3.2,287c-4.5,0-8.6,0.8-12.1,2.3s-6.5,3.8-8.9,6.7
					s-4.3,6.5-5.6,10.6v0.1c-0.1,0.3-0.2,0.7-0.3,1c0.4,0.3,0.8,0.6,1.2,0.9c3.7,3.3,5.7,7.9,5.7,13.3c0,5.4-2,10-5.7,13.3l-0.1,0.1
					c0.1,0.2,0.2,0.5,0.3,0.7c1.4,3.3,3.3,6.2,5.7,8.7c2.8,2.9,6.3,5.1,10.4,6.6s8.8,2.3,14.1,2.3c2.2,0,4.5-0.1,6.9-0.3
					c2.4-0.2,4.7-0.5,7-0.8s4.5-0.7,6.6-1.2c2.1-0.4,4-0.9,5.6-1.4V258L15.9,260.9z M15.9,337.7c-0.9,0.2-2,0.3-3.4,0.4
					c-1.4,0.1-2.9,0.2-4.5,0.2c-4.9,0-8.7-1.7-11.2-5.1c-2.5-3.4-3.8-7.9-3.8-13.5c0-11.7,4.3-17.5,12.9-17.5c1.9,0,3.7,0.2,5.5,0.7
					s3.3,1.1,4.4,1.8v33H15.9z"/>
				<path class="st0" d="M-51.3,306.8L-51.3,306.8c-1.3-4.8-3.4-8.8-6.3-11.9c-5.3-5.5-12.4-8.3-21.5-8.3c-3.9,0-7.7,0.7-11.3,2.2
					c-3.7,1.5-6.9,3.6-9.8,6.4c-2.8,2.8-5.1,6.4-6.9,10.6c-1.7,4.2-2.6,9.2-2.6,14.9c0,4.7,0.7,9.1,2,13.1s3.4,7.5,6.2,10.5
					s6.3,5.3,10.6,7c4.2,1.7,9.2,2.5,15,2.5c2.3,0,4.5-0.1,6.8-0.4c2.3-0.2,4.4-0.5,6.4-0.9c2-0.4,3.8-0.8,5.4-1.3s2.9-1,3.9-1.5
					l-2.4-14.7c-2,0.9-4.6,1.6-7.8,2.2c-3.2,0.6-6.5,0.9-9.8,0.9c-5.2,0-9.3-1.1-12.4-3.3c-3.1-2.2-4.8-5.1-5.2-8.9h33.6
					c-0.3-1.3-0.4-2.7-0.4-4.2c0-2.1,0.3-4.1,0.9-5.9C-55.8,311.7-53.4,308.7-51.3,306.8z M-91.1,313.8c0.2-1.5,0.6-3.1,1.2-4.6
					c0.5-1.5,1.3-2.8,2.2-3.9c1-1.1,2.2-2,3.6-2.7c1.5-0.7,3.2-1,5.2-1c2.1,0,3.9,0.4,5.3,1.1s2.6,1.7,3.5,2.8s1.6,2.4,2.1,3.9
					c0.4,1.5,0.7,3,0.8,4.5L-91.1,313.8C-91.1,313.9-91.1,313.8-91.1,313.8z"/>
			</g>
			<g>
				<g>
					<path class="st1" d="M-54,268c0,1.4,0.5,2.6,1.4,3.4s2,1.2,3.3,1.2s2.4-0.4,3.3-1.2c0.9-0.8,1.4-2,1.4-3.4s-0.5-2.6-1.4-3.4
						s-2-1.2-3.3-1.2s-2.4,0.4-3.3,1.2S-54,266.5-54,268z"/>
				</g>
				<g>
					<path class="st2" d="M-42.3,299.3c0,2.1,0.7,3.7,2,4.8c1.3,1.2,2.9,1.8,4.7,1.8s3.4-0.6,4.7-1.8c1.3-1.2,2-2.8,2-4.8
						s-0.7-3.7-2-4.8c-1.3-1.2-2.9-1.8-4.7-1.8s-3.4,0.6-4.7,1.8C-41.7,295.6-42.3,297.2-42.3,299.3z"/>
				</g>
				<g>
					<path class="st3" d="M-48.5,321.9c0,3.5,1.1,6.2,3.3,8.1c2.2,2,4.8,3,7.9,3c3,0,5.7-1,7.9-3s3.3-4.7,3.3-8.1
						c0-3.4-1.1-6.2-3.3-8.1c-2.2-2-4.9-3-7.9-3s-5.6,1-7.9,3C-47.4,315.7-48.5,318.5-48.5,321.9z"/>
				</g>
			</g>
		</g>
	</g>
</g>
</svg>
