<svg xmlns="http://www.w3.org/2000/svg" viewBox="0 0 200 200"><path class="svg-social-twitter" d="M100 5C47.5 5 5 47.5 5 100c0 52.5 42.5 95 95 95 52.5 0 95-42.5 95-95C195 47.5 152.5 5 100 5zM151.2 75.4c0 1.1 0.1 2.1 0.1 3.2 0 32.7-24.9 70.4-70.4 70.4 -14 0-27-4.1-37.9-11.1 1.9 0.2 3.9 0.4 5.9 0.4 11.6 0 22.3-4 30.7-10.6 -10.8-0.2-20-7.4-23.1-17.2 1.5 0.3 3.1 0.4 4.7 0.4 2.3 0 4.4-0.3 6.5-0.9 -11.3-2.3-19.8-12.3-19.8-24.3 0-0.1 0-0.2 0-0.3 3.3 1.9 7.2 3 11.2 3.1 -6.6-4.4-11-12-11-20.6 0-4.5 1.2-8.8 3.4-12.4 12.2 15 30.4 24.8 51 25.8 -0.4-1.8-0.6-3.7-0.6-5.6 0-13.7 11.1-24.7 24.7-24.7 7.1 0 13.5 3 18.1 7.8 5.6-1.1 10.9-3.2 15.7-6 -1.8 5.8-5.8 10.6-10.9 13.7 5-0.6 9.8-1.9 14.2-3.9C160.3 67.6 156.1 71.9 151.2 75.4z"/></svg>