<?xml version="1.0" encoding="utf-8"?>
<!-- Generator: Adobe Illustrator 19.1.0, SVG Export Plug-In . SVG Version: 6.00 Build 0)  -->
<svg version="1.1" id="Layer_1" xmlns="http://www.w3.org/2000/svg" xmlns:xlink="http://www.w3.org/1999/xlink" x="0px" y="0px"
	 viewBox="-295 207 200 200" style="enable-background:new -295 207 200 200;" xml:space="preserve">
<style type="text/css">
	.st0{fill:#FFFFFF;}
</style>
<polygon class="st0" points="-138.5,268.1 -195,319.1 -251.5,268.1 -257.9,275.1 -221.9,307.6 -257.9,340.1 -251.5,347.2 
	-214.8,314 -195,331.9 -175.2,314 -138.5,347.2 -132.1,340.1 -168.1,307.6 -132.1,275.1 "/>
<path class="st0" d="M-129.3,250.8h-131.4c-7.9,0-14.3,6.4-14.3,14.3v83.7c0,7.9,6.4,14.3,14.3,14.3h131.4c7.9,0,14.3-6.4,14.3-14.3
	v-83.7C-115,257.3-121.4,250.8-129.3,250.8z M-124.5,348.9c0,2.6-2.1,4.8-4.8,4.8h-131.4c-2.6,0-4.8-2.1-4.8-4.8v-83.8
	c0-2.6,2.1-4.8,4.8-4.8h131.4c2.6,0,4.8,2.1,4.8,4.8V348.9z"/>
</svg>
