<?xml version="1.0" encoding="utf-8"?>
<!-- Generator: Adobe Illustrator 19.1.0, SVG Export Plug-In . SVG Version: 6.00 Build 0)  -->
<svg version="1.1" id="Layer_1" xmlns="http://www.w3.org/2000/svg" xmlns:xlink="http://www.w3.org/1999/xlink" x="0px" y="0px"
	 viewBox="-295 207 200 200" style="enable-background:new -295 207 200 200;" xml:space="preserve">
<style type="text/css">
	.st0{fill:#FFFFFF;}
</style>
<path class="st0" d="M-102.2,261.8v-20.1c-49.5,0-89.8,40.3-89.8,89.8c0,22.5,18.3,40.8,40.8,40.8s40.8-18.3,40.8-40.8
	s-18.3-40.8-40.8-40.8c-2.7,0-5.4,0.3-8,0.8C-146.6,273.6-125.7,261.8-102.2,261.8z"/>
<path class="st0" d="M-287.8,331.5c0,22.5,18.3,40.8,40.8,40.8s40.8-18.3,40.8-40.8s-18.4-40.7-40.9-40.7c-2.7,0-5.4,0.3-8,0.8
	c12.6-18,33.5-29.8,57.1-29.8v-20.1C-247.5,241.7-287.8,282-287.8,331.5z"/>
</svg>
