<?xml version="1.0" encoding="utf-8"?>
<!-- Generator: Adobe Illustrator 19.1.0, SVG Export Plug-In . SVG Version: 6.00 Build 0)  -->
<svg version="1.1" id="Layer_1" xmlns="http://www.w3.org/2000/svg" xmlns:xlink="http://www.w3.org/1999/xlink" x="0px" y="0px"
	 viewBox="-295 207 200 200" style="enable-background:new -295 207 200 200;" xml:space="preserve">
<style type="text/css">
	.st0{fill:#FFFFFF;}
</style>
<path class="st0" d="M-195,221.5c-30.3,0-55,24.7-55,55c0,58.1,49.2,110,51.3,112.2l3.7,3.9l3.7-3.9c0.5-0.6,13-14.1,25.6-34.6
	c17.1-27.8,25.7-53.9,25.7-77.5C-140,246.2-164.7,221.5-195,221.5z M-195.1,377.4c-11.4-13.2-44.8-55.8-44.8-101
	c0-24.7,20.1-44.8,44.8-44.8c24.7,0,44.8,20.1,44.8,44.8C-150.2,320-183.7,363.9-195.1,377.4z"/>
<path class="st0" d="M-195,249.7c-14.8,0-26.8,12-26.8,26.8s12,26.8,26.8,26.8s26.8-12,26.8-26.8S-180.2,249.7-195,249.7z
	 M-195,293.1c-9.2,0-16.6-7.5-16.6-16.6s7.5-16.6,16.6-16.6s16.6,7.5,16.6,16.6S-185.8,293.1-195,293.1z"/>
</svg>
