<svg xmlns="http://www.w3.org/2000/svg" viewBox="0 0 200 200"><path class="svg-social-linkedin" d="M100 5C47.5 5 5 47.5 5 100c0 52.5 42.5 95 95 95 52.5 0 95-42.5 95-95C195 47.5 152.5 5 100 5zM78.7 137.1c0 0.6-0.2 0.7-0.7 0.7 -5.7 0-11.3 0-17 0 -0.6 0-0.7-0.2-0.7-0.8 0-9.6 0-19.2 0-28.8 0-9.5 0-19.1 0-28.6 0-0.9 0-0.9 0.9-0.9 5.6 0 11.2 0 16.8 0 0.6 0 0.8 0.1 0.8 0.8C78.7 98.7 78.7 117.9 78.7 137.1zM69.4 70.8c-5.8 0-10.5-4.8-10.5-10.7 0-5.9 4.7-10.6 10.6-10.6 5.9 0 10.7 4.8 10.7 10.6C80.2 66 75.4 70.8 69.4 70.8zM146.7 137.8c-5.7 0-11.3 0-17 0 -0.6 0-0.7-0.2-0.7-0.7 0-10 0-20.1 0-30.1 0-2.4-0.2-4.8-0.9-7.1 -1.4-4.8-4.7-6.5-9.3-6.3 -1.7 0.1-3.3 0.4-4.8 1.1 -2.6 1.4-4 3.7-4.7 6.4 -0.6 2.1-0.7 4.2-0.8 6.4 -0.1 9.9 0 19.7 0 29.6 0 0.6-0.1 0.8-0.8 0.8 -5.6 0-11.2 0-16.8 0 -0.5 0-0.7-0.1-0.7-0.7 0-19.2 0-38.4 0-57.6 0-0.6 0.2-0.8 0.8-0.8 5.4 0 10.8 0 16.1 0 0.6 0 0.7 0.1 0.7 0.7 0 2.2 0 4.4 0 6.7 0 0.2 0 0.4 0 0.7 0.1 0 0.1 0 0.2 0.1 0.5-0.9 1-1.7 1.7-2.5 3-3.6 6.9-5.8 11.4-6.6 4.9-0.9 9.7-0.5 14.4 1.2 5.1 1.9 8.2 5.8 10 10.9 1.1 3.2 1.5 6.6 1.8 10 0.2 2.8 0.2 5.7 0.2 8.5 0 9.6 0 19.2 0 28.8C147.4 137.7 147.3 137.8 146.7 137.8z"/></svg>