<svg xmlns="http://www.w3.org/2000/svg" viewBox="0 0 200 200"><path class="svg-contact" d="M63.5 171.2v-36.4H38c-7.4 0-13.5-6.1-13.5-13.5V42.3c0-7.4 6.1-13.5 13.5-13.5H162c7.4 0 13.5 6.1 13.5 13.5v79.1c0 7.4-6.1 13.5-13.5 13.5H99.8L63.5 171.2zM38 37.8c-2.5 0-4.5 2-4.5 4.5v79.1c0 2.5 2 4.5 4.5 4.5h34.5v23.6l23.6-23.6H162c2.5 0 4.5-2 4.5-4.5V42.3c0-2.5-2-4.5-4.5-4.5H38z"/><rect class="svg-contact" x="53.4" y="57.4" width="93.3" height="9"/><rect class="svg-contact" x="53.4" y="76.8" width="93.3" height="9"/><rect class="svg-contact" x="53.4" y="96.3" width="93.3" height="9"/></svg>