<svg xmlns="http://www.w3.org/2000/svg" viewBox="0 0 200 200"><polygon class="icon-svg" points="156.5,61.1 100,112.1 43.5,61.1 37.1,68.1 73.1,100.6 37.1,133.1 43.5,140.2 80.2,107 100,124.9 119.8,107 156.5,140.2 162.9,133.1 126.9,100.6 162.9,68.1"/><path class="icon-svg" d="M165.7,43.8H34.3c-7.9,0-14.3,6.4-14.3,14.3v83.7c0,7.9,6.4,14.3,14.3,14.3h131.4c7.9,0,14.3-6.4,14.3-14.3V58.1 C180,50.3,173.6,43.8,165.7,43.8z M170.5,141.9c0,2.6-2.1,4.8-4.8,4.8H34.3c-2.6,0-4.8-2.1-4.8-4.8V58.1c0-2.6,2.1-4.8,4.8-4.8 h131.4c2.6,0,4.8,2.1,4.8,4.8V141.9z"/></svg>
