<?xml version="1.0" encoding="utf-8"?>
<!-- Generator: Adobe Illustrator 19.1.0, SVG Export Plug-In . SVG Version: 6.00 Build 0)  -->
<svg version="1.1" id="Layer_1" xmlns="http://www.w3.org/2000/svg" xmlns:xlink="http://www.w3.org/1999/xlink" x="0px" y="0px"
	 viewBox="-295 207 200 200" style="enable-background:new -295 207 200 200;" xml:space="preserve">
<style type="text/css">
	.st0{fill:#FFFFFF;}
</style>
<path class="st0" d="M-287.8,352.2v20.1c49.5,0,89.8-40.3,89.8-89.8c0-22.5-18.3-40.8-40.8-40.8s-40.8,18.3-40.8,40.8
	s18.3,40.8,40.8,40.8c2.7,0,5.4-0.3,8-0.8C-243.4,340.4-264.3,352.2-287.8,352.2z"/>
<path class="st0" d="M-102.2,282.5c0-22.5-18.3-40.8-40.8-40.8s-40.7,18.3-40.7,40.8s18.3,40.8,40.8,40.8c2.7,0,5.4-0.3,8-0.8
	c-12.6,18-33.5,29.8-57.1,29.8v20.1C-142.5,372.3-102.2,332-102.2,282.5z"/>
</svg>
