<?xml version="1.0" encoding="utf-8"?>
<!-- Generator: Adobe Illustrator 19.1.0, SVG Export Plug-In . SVG Version: 6.00 Build 0)  -->
<svg version="1.1" id="Layer_1" xmlns="http://www.w3.org/2000/svg" xmlns:xlink="http://www.w3.org/1999/xlink" x="0px" y="0px"
	 viewBox="-295 207 200 200" style="enable-background:new -295 207 200 200;" xml:space="preserve">
<style type="text/css">
	.st0{fill:#FFFFFF;}
</style>
<path class="st0" d="M-231.5,378.2v-36.4H-257c-7.4,0-13.5-6.1-13.5-13.5v-79c0-7.4,6.1-13.5,13.5-13.5h124
	c7.4,0,13.5,6.1,13.5,13.5v79.1c0,7.4-6.1,13.5-13.5,13.5h-62.2L-231.5,378.2z M-257,244.8c-2.5,0-4.5,2-4.5,4.5v79.1
	c0,2.5,2,4.5,4.5,4.5h34.5v23.6l23.6-23.6h65.9c2.5,0,4.5-2,4.5-4.5v-79.1c0-2.5-2-4.5-4.5-4.5H-257z"/>
<rect x="-241.6" y="264.4" class="st0" width="93.3" height="9"/>
<rect x="-241.6" y="283.8" class="st0" width="93.3" height="9"/>
<rect x="-241.6" y="303.3" class="st0" width="93.3" height="9"/>
</svg>
