<svg xmlns="http://www.w3.org/2000/svg" viewBox="0 0 200 200"><path class="client-aca" d="M185 59.4c3.5-8.3 4.7-6.7-2.1-14.1 -0.3-0.3-0.7-0.6-1-1 -0.7-0.9-1.4-4.7-1-6.2 0.7-3.3-1.1-5.9-2.6-8.5 -2.6-4.5-8.2-5.3-11.7-8.9 -0.4-0.4-1.3-0.1-2-0.3 -3.9-0.9-7.3 1.9-11.3 1.6 -1.5-0.1-3 1.5-4.6 2.2 -3.7 1.7-6.7 4.2-9.7 6.9 -9.7 8.8-16 20-22.1 31.3 -3.4 6.3-6.5 12.7-10.7 18.6 -2.4 3.4-5 6.1-8.6 7.8 -5.8 2.8-11.7 5.3-17.9 7.3 -7.1 2.3-12.2 7.9-17.9 12.3 -6.3 4.9-11.3 6.6-18.9 5.5 -7.2-1.1-11.9-8.1-9.5-14.8 3-8.4 10-12.5 17.6-15.8 0.9-0.4 2.1-0.3 3.2 0.6 1.8 1.6 4.2 2.4 6.3 3.3 3.3 1.4 6.7 3 10.6 3.1 5.5 0.1 10.3-2.2 14.7-4.8 3-1.8 5.5-4.6 5.9-8.6 0.1-0.6 0.3-1.5-0.5-1.8 -0.5-0.2-1.4-0.2-1.8 0.2 -1.2 1-2.2 2.4-3.5 3.4 -3.5 2.6-9.4 2.8-10.6-0.5 -2.1-5.5-6-4.8-10-4.7 -2.7 0.1-5.7-1-8.1 0.5 -4.6 2.9-10.5 2.8-14.8 6.3 -9.2 1.5-12.4 9.1-15.9 16.1 -1.1 2.2 0.1 14.7 2.2 18 4.5 7.1 12.2 10.5 20.2 8.3 2.6-0.7 5.2-2 8-1.3 -0.9 2.6-1.8 5.3-2.8 7.9 -0.2 0.6-0.9 1.1-1 1.7 -0.7 4.1-3.9 6.2-7 7.8 -3.4 1.8-5.6 4.5-7.1 7.7 -2.9 6.4-5.9 12.7-10.9 17.8 -2.1 2.2-9.9 7.5-13.1 8.1 -2 0.4-3 2.5-2.8 5.4 0.2 2.4 1.9 1.5 3.1 1.5 55.1 0 110.1 0 165.2 0 0.2 0 0.5 0 0.7 0 2.2 0.4 2.7-0.7 2.6-2.7 -0.1-5.2 0.2-4.2-3.9-4.2 -2.6 0-5.1 0-7.7 0 -2.8 0-2.8-0.1-6.3-3.1 -2-1.7-4.4-2.9-7.3-2.5 5.1 4.5 1.9 7.4-0.6 6.8 -1.1-0.3-0.9-0.7-2-2 -1.1-1.3-1-2.5-2-3 -0.5-0.3-1.4-0.4-1.8-0.1 -1.1 0.7 0.3 0.9 0.4 1.4 1 3.3 0.7 3.8-2.1 3.9 -3.5 0.2-6.6 0.1-8-4.2 -0.4-1.2-1.7-2.5-3.6-2.9 -2-0.4-2.2-2.3-2.7-4.1 -1-3.7-1.6-7.6-3.2-11.2 -1.4-3.3-3.9-6.4-3.7-10.3 -4.1-5.4-5-12.7-10.3-17.3 -0.5-0.5-1.2-1.3-0.8-1.7 2.9-2.4 0-6.2 2.5-8.8 1-1-2.2-7.4-3.7-7.7 -1.7-0.4-1.6 1-1.7 2.2 -0.5 8-5.7 13-13.7 13.1 -5.1 0.1-10.2 0-15.3 0 -1.4 0-2.6 0-3.7 1.3 -3.5 4.2-8.3 7.1-10.9 12.2 -0.7 1.4-2.1 2.6-3.4 3.4 -4.4 2.8-8.9 5.4-13.5 7.9 -0.7 0.4-2.2 0.6-2.6 0.2 -2.1-2-2.8 0.1-4.1 1 -1.3 0.9-1.3 2.3-1.9 3.5 -2.3 4.6-3.8 13.7-3.5 19 0.1 1.1 0.6 2.5-0.7 3 -0.3 0.1-1.3-1.2-1.9-1.9 -1-1-1.5-0.7-1.5 0.6 0.2 2.9-0.4 3.5-2.5 1.1 -1.3-1.5-2.6-2.2-3.1 0.7 -0.1 0.4-0.5 0.7-0.7 1 -0.2-0.4-0.6-0.7-0.6-1.1 -0.8-4.9 1.1-9.1 3.8-13.1 2.8-4.2 6.2-8.1 8.6-12.5 2.3-4.3 5.2-7.6 9.6-9.6 2.9-1.3 6.4-3 6.9-6.2 0.4-3.3 2.5-6.3 1.8-9.8 -0.2-1-0.3-2.2 0.3-3.3 2.6-4.3 4.6-8.9 7.5-12.9 2.5-3.4 6.2-5.3 10.2-7.1 7.1-3.1 14.9-4.4 21.6-8.4 2.5-1.5 3.4 0.6 3.3 1.1 -0.5 5.6 2.8 8.6 7 11 0.6 0.3 1 0.9 1.5 0 0.2-0.4 0.2-1 0-1.4 -3.4-10-3.5-10.6-1.4-16.4 1-2.8 5.9-8.3 6.6-7.6 2.2 2.6 3.3 5.7 3.2 9.1 0 0.9 0.1 1.9 0 2.8 -0.2 1.5 1.8 2 1.5 3.6 -0.1 0.6 0.7 0.7 1.3 0.1 0.8-0.8 1.4-1.6 1.5-2.9 0.1-0.7 1.3-0.9 1.7-0.6 1.3 1 2.6 2 3.5 3.3 1.1 1.7 2.6-1.9 3.6 0.6 1.6 4 5.3 6.6 7.3 10.2 2.1 3.8 3.2 7.7 0.6 11.9 -1.7 2.7-2.1 6.1-3.7 8.9 -1 1.8-0.5 3.6 0.2 5.7 1.4 4.5 3.1 9 3.5 13.9 0.3 3.4 1.5 6.8 2.8 10 0.5 1.2 1.3 2.2 1.3 3.6 0.3 4.7 2.6 7.4 6.9 8.4 0.2 0.1 0.5 0.1 0.7 0 0.6-0.3 0.7-0.7 0.4-1 -3.1-2.1-2.7-5.9-4.3-8.7 -3-5.1-2.7-11.2-1.2-17.4 1-4 3.7-7.5 3.6-11.8 0-1.1 2.7-4.2 3.8-5.3 4.2-4.2 8.8-8 11.8-13.3 1.2-2 1.2-4.8 2.6-6.6 4.7-6.1 5.8-13.1 6.4-20.4 0.1-1.1-0.4-2.3 0.4-3.3 1.6-2 1.3-3.9 0.1-6.2 -1.3-2.5-1-2.7 2.3-2.4 2.7 0.2 3.9-1.2 4.3-4C185.6 63.4 184 61.9 185 59.4zM112.2 138c2.1-0.5 3.8-2.7 5.9-1.7 1.8 0 2.4 0.1 3.2 1.9 2.7 7 6.7 13.4 8.3 20.8 0.4 1.7 2 2.8 0 4.6 -0.6 0.5-0.7 2.7 0.8 3.6 1.5 0.9 1.5 2.7 2.5 3.8 0.9 1 1.3 2.2 0 2.8 -0.8 0.4-2.2 0.6-3.2-0.3 -0.2-0.2-0.4-0.3-0.5-0.5 -1.5-4.6-5.6-5.5-9.5-6.8 -2-0.7-3.5-1.8-4.6-4.1 -0.9-2-2.3-4.2-4.1-6 -3-2.9-2.8-7.3-3.6-10.9C106.8 142.3 109.3 138.6 112.2 138zM103.7 156.9c1.5-2.3 1-2.3 3.1-0.7 3.2 2.4 3.9 6.4 6.2 9.3 1.6 2.1 3.2 4.3 5 6.3 0.5 0.5 2.1 0.8 1 1.9 -0.5 0.5-1.9 0.6-2.6 0.2 -1.4-0.7-2.7-1.2-4.3-1.4 -5.8-0.8-9.3-5.2-9.3-11C103.1 160 102.7 158.5 103.7 156.9zM49.2 158.7c2.4-2.8 5-5.6 7.9-7.8 1.2-0.9 2.8-1.9 4.7-2.1 8.2-1.1 15-5.4 21.5-10.3 0.9-0.7 1.6-1.8 2.6-2.1 0.9-0.3 3.1-0.4 2.9 0.7 -0.6 2.8 3.1 4.8 0.6 8.2 -1.9 2.6-0.6 6.7 1.8 9.2 3.8 3.9 6.3 8.5 8.6 13.2 1 2 2.5 3.1 3.6 4.8 0.2 0.3 0.4 0.7 0.6 1 -0.4 0.2-0.8 0.5-1.2 0.5 -8.1 0-16.3 0-24.4 0 -7.7 0-15.3-0.1-23 0.1 -2.5 0.1-4.2-0.3-5-2.9 -0.2-0.8-1.4-1.2-1.9-2C46.4 165.7 46.5 161.8 49.2 158.7zM133.6 49.8c0.3-9.1 4.7-14.9 11-19.4 1.4-1 2.8-2.1 4.2-3.1 3.8-2.7 8.4-2.1 12.4-3.8 0.8-0.3 3.9 0.2 4.5 2.7 0.3 1.3 1.7 2 1.7 3.5 0 0.6 1.3 1.9 1.8 1.7 1-0.2 0.6-1.5 0.7-2.4 0.2-2.1 1.4-2.1 2.7-1 0.6 0.5 1.7 1 1.5 2.1 1.4 0 1.9 1.2 2.6 2 0.6 0.7 0.4 1.9-0.7 2.1 -4 1-7.8 2.6-11.8-0.6 -2-1.6-5.1-2.4-7.4-3.8 -2.5-1.6-4.8-1-7.2-1 -0.6 0-1.9 1.2-1.8 1.9 0 1.1 1.3 0.7 2.1 0.8 0.6 0.1 1.2 0.4 1.8 0.7 -0.4 0.6-1.1 0.9-1.7 0.7 -2.2-0.6-3.8 1-5.7 1.4 -0.6 0.1-1.3 0.6-0.3 1.2 0.6 0.4 2-0.3 1.9 1 0 0.4-1.6 0.5-2.2 1 -3.6 3.1-6.5 6.7-8.6 11C134.7 49.4 134.5 50 133.6 49.8zM165.5 106c-1.7 2.8-2.9 6.7-6.8 7.9 -0.1-6.2 2.3-11.3 3.5-16.6 0.9-4.1 1.3-8.1-0.8-11.6 -2.3-3.9-3.4-8.5-6.8-11.8 -0.3-0.3 0-1.6-0.7-1.7 -0.6 0-0.7 0.9-0.7 1.6 -0.1 3.4 1.5 6.2 3.1 9.2 2.5 4.5 4 9.3 1.1 14.4 -0.2 0.4-0.4 0.8-0.6 1.1 -0.3-0.3-0.7-0.6-0.8-0.9 -0.5-4.9-2.8-9-5.6-13 -1-1.4-2.1-3-1.4-5 0.7-2-1-3.3-1.4-5 -0.3-1.3-0.6-1.4-1.4-0.2 -1.5 2.2-1.4 1.9-2.8 0 -4.5-6.2-3-12.6-0.8-18.9 0.3-0.8 0.9-1.5 0.8-2.4 0-0.4 0.1-1-0.1-1.3 -0.6-1-1-0.1-1.4 0.3 -1.1 0.7-2.4 0.8-3.4 1.9 -0.8 0.9-1.6 3.4-3.3 2 -1.2-1 0.8-2.4 1.4-3.4 2.5-4.8 4.8-9.6 10.1-12.5 3-1.7 5.8-3 9.2-2.8l0.6 0.4c-0.9 3.5-2.8 5.6-4 7.8 -2.9 5.5-3.8 11.3-3.5 17.4 0.1 1.6 1.4 2.2 1.5 3.6 0 0.7 0.1 1.3 0.9 1.2 0.2 0 0.4-0.7 0.5-1.1 0-1.9 0.1-3.7 0-5.6 -0.2-3.9 0.9-7.4 2.8-10.7 0.3-0.5 0-1.6 0.7-1.7 0.6-0.1 0.8 0.9 0.7 1.6 -0.8 9.5 3.6 16.7 10 23 3.5 3.4 4.9 7.7 5.3 12.4C172 94.8 170.3 98.1 165.5 106zM180.9 65.2c-0.4-0.1-0.9 0-1.4 0 -0.7 0-1.4 0-2 0 -0.2 0-0.5-0.3-0.5-0.5 0.1-0.3 0.3-0.7 0.5-1 1-1.6 2.6-1.5 4.2-1.2 0.3 0.1 0.7 1.1 0.6 1.7C182.3 64.9 181.7 65.3 180.9 65.2zM184.2 52.6c-0.9 0.1-1.9-0.1-2.8 0.1 -0.6 0.1-1.2 0.4-1.8 0.7 0.6 0.2 1.2 0.4 1.8 0.7 1.5 0.7 1 2.7 2.3 3.6 -1 0.8-1.6 2.2-3.4 2 -0.6-0.1-1.1 1.2-2.2 1.4 -1.6 0.2-2.6-0.5-3.5-1.6 -1-1.2-0.5-1.9 0.3-2.9 1.2-1.5 0.7-2.5-1.3-2.5 -2 0-4.1 0.4-4.4-2.6 0-0.4-1.9-0.4-2.1 0.7 -0.3 1.3-0.1 2.8 0 4.1 0.1 2.3-2.1 2.8-3.1 4.3 -0.3 0.5-0.9 0.6-0.9-0.1 -0.3-2-2.9-3.7-1.5-5.5 1.9-2.4 1-4.8 1.3-7.1 0.2-1.6-0.6-4.3 0.5-4.5 3.2-0.4 2.2-4.9 5.6-4.8 1.2 0 2.1-2.2 4-0.4 1.2 1.2 3.8 1.2 3.8 3.5 0.1 3 2 4.4 4.3 5.5 0.6 0.3 1.1 0.7 1.6 1.1C185 52.2 184.6 52.5 184.2 52.6zM175.1 45.5c-2.4-0.7 0.4-4.3-2.6-5 -0.4-0.1-0.8-0.5-1.2-0.5 -0.7-0.1-1.6 0.4-1.2 0.8 1.1 1.1 0.9 1.6-0.1 2.6 -0.5 0.5-3.2 1.5 0.1 2.2 3.2 0.7 5.1 3.4 7.5 5.5 0.2 0.2 1 0.1 1.3-0.1 0.3-0.2 0.5-0.7 0.7-1.1 0-0.2 0.1-0.6 0-0.7C178.2 47.9 177.3 46.2 175.1 45.5z"/></svg>