<?xml version="1.0" encoding="utf-8"?>
<!-- Generator: Adobe Illustrator 19.1.0, SVG Export Plug-In . SVG Version: 6.00 Build 0)  -->
<svg version="1.1" id="Layer_1" xmlns="http://www.w3.org/2000/svg" xmlns:xlink="http://www.w3.org/1999/xlink" x="0px" y="0px"
	 viewBox="-295 207 200 200" style="enable-background:new -295 207 200 200;" xml:space="preserve">
<style type="text/css">
	.st0{fill:#FFFFFF;}
</style>
<g>
	<path class="st0" d="M-165.8,312.1c-5.2-4-11-6.8-17.4-8.3c5.2-1.6,10-4.3,14.3-8.1c7.5-6.6,11.3-15.7,11.3-27.1
		c0-11.3-3.8-20.4-11.3-27.1c-7.3-6.5-16-9.8-26-9.8c-9.9,0-18.6,3.3-25.9,9.8c-7.5,6.6-11.3,15.7-11.3,27.1s3.8,20.5,11.3,27.1
		c4.3,3.8,9.1,6.5,14.2,8c-6.4,1.5-12.2,4.3-17.4,8.3c-8.6,6.6-12.9,15.8-12.9,27.3v29.6c0,7.4,6.7,13.5,14.8,13.5h54.4
		c8.2,0,14.8-6.1,14.8-13.5v-29.6C-152.9,327.9-157.2,318.7-165.8,312.1z M-223.1,268.7c0-8.8,2.7-15.4,8.2-20.3
		c5.7-5.1,12.2-7.5,20-7.5s14.3,2.5,20,7.5l0,0c5.5,4.9,8.2,11.5,8.2,20.3c0,8.8-2.7,15.5-8.2,20.4c-5.7,5-12.3,7.5-20,7.5
		s-14.2-2.5-20-7.5C-220.4,284.2-223.1,277.5-223.1,268.7z M-161.9,369c0,2.4-2.7,4.5-5.8,4.5h-54.4c-3.2,0-5.8-2.1-5.8-4.5v-29.6
		c0-8.6,3.1-15.2,9.4-20.1c6.7-5.2,14.4-7.7,23.6-7.7s16.9,2.5,23.6,7.7c6.3,4.9,9.4,11.5,9.4,20.1L-161.9,369L-161.9,369z
		 M-179.3,285.1c4.6-4,6.9-9.6,6.9-16.4h-9c0,4.2-1.3,7.4-3.8,9.7c-2.8,2.4-5.9,3.6-9.7,3.6c-3.7,0-6.9-1.2-9.6-3.6
		c-2.6-2.3-3.8-5.5-3.8-9.7h-9c0,6.9,2.3,12.4,6.9,16.4c4.4,3.9,9.7,5.9,15.6,5.9C-189,291-183.7,289-179.3,285.1z M-237.2,281.8
		c0-7.3-2.5-13.2-7.3-17.5c-4.7-4.2-10.3-6.3-16.7-6.3c-6.4,0-12,2.1-16.7,6.3l0,0c-4.8,4.3-7.3,10.2-7.3,17.5s2.5,13.2,7.3,17.5
		c2.3,2,4.8,3.6,7.5,4.6c-3.9,1.2-7.5,3.3-10.7,6.1c-5.8,5.1-8.7,12.1-8.7,20.8v20.3c0,7.4,6.1,13.5,13.5,13.5h29.6v-9h-29.5
		c-2.5,0-4.5-2-4.5-4.5v-20.3c0-6.1,1.8-10.7,5.7-14c3.9-3.5,8.5-5.2,13.9-5.2s9.9,1.7,13.9,5.2l6-6.7c-3.2-2.9-6.8-4.9-10.7-6.1
		c2.7-1,5.2-2.6,7.5-4.6C-239.7,295-237.2,289.1-237.2,281.8z M-250.5,292.5c-3,2.7-6.5,4-10.7,4c-4.1,0-7.6-1.3-10.7-4
		c-2.9-2.5-4.3-6.1-4.3-10.7c0-4.7,1.4-8.2,4.3-10.8c3-2.7,6.5-4,10.7-4s7.7,1.3,10.7,4c2.9,2.6,4.3,6.1,4.3,10.8
		S-247.6,290-250.5,292.5z M-108.8,310c-3.2-2.9-6.8-4.9-10.7-6.1c2.7-1,5.2-2.6,7.5-4.6c4.9-4.3,7.3-10.2,7.3-17.5
		s-2.5-13.2-7.3-17.5l0,0c-4.7-4.2-10.3-6.3-16.7-6.3c-6.4,0-12,2.1-16.7,6.3c-4.9,4.3-7.3,10.2-7.3,17.5s2.5,13.2,7.3,17.5
		c2.3,2,4.8,3.6,7.5,4.6c-3.9,1.2-7.5,3.3-10.7,6.1l6,6.7c4-3.5,8.5-5.2,13.9-5.2s9.9,1.7,13.9,5.2c3.8,3.4,5.6,7.9,5.6,14V351
		c0,2.5-2,4.5-4.5,4.5h-29.6v9h29.6c7.4,0,13.5-6.1,13.5-13.5v-20.2C-100.1,322.1-103,315.1-108.8,310z M-143.6,281.8
		c0-4.7,1.4-8.2,4.3-10.8c3-2.7,6.5-4,10.7-4s7.6,1.3,10.7,4c2.9,2.6,4.3,6.1,4.3,10.8s-1.4,8.2-4.3,10.8c-3,2.7-6.5,4-10.7,4
		s-7.7-1.3-10.7-4C-142.2,290-143.6,286.5-143.6,281.8z"/>
</g>
</svg>
