<?xml version="1.0" encoding="utf-8"?>
<!-- Generator: Adobe Illustrator 19.1.0, SVG Export Plug-In . SVG Version: 6.00 Build 0)  -->
<svg version="1.1" id="Layer_1" xmlns="http://www.w3.org/2000/svg" xmlns:xlink="http://www.w3.org/1999/xlink" x="0px" y="0px"
	 viewBox="-295 207 200 200" style="enable-background:new -295 207 200 200;" xml:space="preserve">
<style type="text/css">
	.st0{fill:#FFFFFF;}
</style>
<path class="st0" d="M-155.5,216.5h-79c-7.5,0-13.5,6-13.5,13.5v154c0,7.4,6.1,13.5,13.5,13.5h79.1c7.4,0,13.5-6.1,13.5-13.5V230
	C-142,222.5-148,216.5-155.5,216.5z M-234.5,225.5h79.1c2.5,0,4.5,2,4.5,4.5v5.7H-239V230C-239,227.5-237,225.5-234.5,225.5z
	 M-151,244.7v114.7h-88V244.7H-151z M-155.5,388.5h-79c-2.5,0-4.5-2-4.5-4.5v-15.7h88V384C-151,386.5-153,388.5-155.5,388.5z"/>
<circle class="st0" cx="-195" cy="378.4" r="6.2"/>
</svg>
