<?xml version="1.0" encoding="utf-8"?>
<!-- Generator: Adobe Illustrator 19.1.0, SVG Export Plug-In . SVG Version: 6.00 Build 0)  -->
<svg version="1.1" id="Layer_1" xmlns="http://www.w3.org/2000/svg" xmlns:xlink="http://www.w3.org/1999/xlink" x="0px" y="0px"
	 viewBox="-295 207 200 200" style="enable-background:new -295 207 200 200;" xml:space="preserve">
<style type="text/css">
	.st0{fill:#FFFFFF;}
</style>
<g>
	<g>
		<path class="st0" d="M-155.6,216.5h-79c-7.5,0-13.5,6-13.5,13.5v154c0,7.4,6.1,13.5,13.5,13.5h79.1c7.4,0,13.5-6.1,13.5-13.5V230
			C-142.1,222.5-148.1,216.5-155.6,216.5z M-234.6,225.5h79.1c2.5,0,4.5,2,4.5,4.5v5.7h-88.1V230
			C-239.1,227.5-237.1,225.5-234.6,225.5z M-151.1,244.7v114.7h-88V244.7H-151.1z M-155.6,388.5h-79c-2.5,0-4.5-2-4.5-4.5v-15.7h88
			V384C-151.1,386.5-153.1,388.5-155.6,388.5z"/>
	</g>
	<circle class="st0" cx="-195.1" cy="378.4" r="6.2"/>
	<polygon class="st0" points="-202.8,261.7 -209.2,255.4 -221.9,268.1 -226.7,263.3 -232.9,269.7 -221.9,280.8 	"/>
	<rect x="-192.6" y="263.6" class="st0" width="29.1" height="9"/>
	<rect x="-192.6" y="297.5" class="st0" width="29.1" height="9"/>
	<polygon class="st0" points="-202.8,295.6 -209.2,289.3 -221.9,302 -226.7,297.2 -232.9,303.6 -221.9,314.7 	"/>
	<rect x="-192.6" y="331.4" class="st0" width="29.1" height="9"/>
	<polygon class="st0" points="-221.9,335.9 -226.7,331.1 -232.9,337.5 -221.9,348.6 -202.8,329.6 -209.2,323.2 	"/>
</g>
</svg>
