<?xml version="1.0" encoding="utf-8"?>
<!-- Generator: Adobe Illustrator 19.1.0, SVG Export Plug-In . SVG Version: 6.00 Build 0)  -->
<svg version="1.1" id="Layer_1" xmlns="http://www.w3.org/2000/svg" xmlns:xlink="http://www.w3.org/1999/xlink" x="0px" y="0px"
	 viewBox="0 0 200 200" style="enable-background:new 0 0 200 200;" xml:space="preserve">
<style type="text/css">
	.st0{stroke:#0082CA;stroke-width:9;stroke-miterlimit:10;}
</style>
<g>
	<path d="M139.5,9.5H60.5C53,9.5,47,15.5,47,23V177c0,7.4,6.1,13.5,13.5,13.5h79.1c7.4,0,13.5-6.1,13.5-13.5V23
		C153,15.5,147,9.5,139.5,9.5z M60.5,18.5h79.1c2.5,0,4.5,2,4.5,4.5v5.7H56V23C56,20.5,58,18.5,60.5,18.5z M144,37.7v114.7H56V37.7
		H144z M139.5,181.5H60.5c-2.5,0-4.5-2-4.5-4.5v-15.7H144V177C144,179.5,142,181.5,139.5,181.5z"/>
	<circle cx="100" cy="171.4" r="6.2"/>
</g>
</svg>
